<svg xmlns="http://www.w3.org/2000/svg" xmlns:xlink="http://www.w3.org/1999/xlink" width="40" zoomAndPan="magnify" viewBox="0 0 30 30.000001" height="40" preserveAspectRatio="xMidYMid meet" version="1.0"><defs><clipPath id="c25f7aebb8"><path d="M 3.386719 10 L 25 10 L 25 18 L 3.386719 18 Z M 3.386719 10 " clip-rule="nonzero"/></clipPath><clipPath id="779c4db608"><path d="M 9 0.289062 L 15 0.289062 L 15 7 L 9 7 Z M 9 0.289062 " clip-rule="nonzero"/></clipPath><clipPath id="80c71c8c98"><path d="M 3.386719 15 L 25.160156 15 L 25.160156 28.59375 L 3.386719 28.59375 Z M 3.386719 15 " clip-rule="nonzero"/></clipPath><clipPath id="ddc23fdb2a"><path d="M 6 16 L 10 16 L 10 28.59375 L 6 28.59375 Z M 6 16 " clip-rule="nonzero"/></clipPath><clipPath id="53830e88c2"><path d="M 10 17 L 13 17 L 13 28.59375 L 10 28.59375 Z M 10 17 " clip-rule="nonzero"/></clipPath><clipPath id="171d085fef"><path d="M 14 17 L 16 17 L 16 28.59375 L 14 28.59375 Z M 14 17 " clip-rule="nonzero"/></clipPath><clipPath id="5b6876b1b8"><path d="M 17 17 L 19 17 L 19 28.59375 L 17 28.59375 Z M 17 17 " clip-rule="nonzero"/></clipPath><clipPath id="cdce44ba5f"><path d="M 19 16 L 23 16 L 23 28.59375 L 19 28.59375 Z M 19 16 " clip-rule="nonzero"/></clipPath></defs><g clip-path="url(#c25f7aebb8)"><path fill="#59403b" d="M 24.921875 16.308594 C 24.914062 16.582031 24.890625 16.859375 24.851562 17.132812 C 24.738281 17.164062 24.625 17.199219 24.511719 17.230469 C 24.539062 17.050781 24.570312 16.871094 24.597656 16.691406 C 24.4375 16.738281 24.277344 16.78125 24.117188 16.824219 C 24.128906 16.726562 24.140625 16.628906 24.144531 16.53125 C 24.15625 16.359375 24.164062 16.1875 24.160156 16.015625 C 24.132812 14.179688 23.28125 12.378906 21.820312 11.226562 C 19.085938 12.382812 16.148438 12.75 13.222656 13.132812 C 12.015625 13.289062 4.703125 14.050781 4.570312 16.046875 C 4.5625 16.191406 4.589844 16.34375 4.660156 16.5 C 4.675781 16.53125 4.808594 16.867188 4.816406 16.90625 C 4.601562 16.851562 4.386719 16.792969 4.175781 16.734375 C 4.191406 16.875 4.210938 17.007812 4.234375 17.136719 C 4.136719 17.082031 4.046875 17 3.996094 16.890625 C 3.914062 16.703125 3.863281 16.523438 3.835938 16.355469 C 3.804688 16.140625 3.816406 15.9375 3.863281 15.746094 C 4.003906 15.179688 4.457031 14.722656 5 14.378906 C 5.230469 14.230469 5.480469 14.101562 5.726562 13.996094 C 5.824219 13.953125 5.921875 13.914062 6.015625 13.878906 C 7.667969 13.257812 9.40625 12.910156 11.144531 12.648438 C 14.582031 12.132812 18.140625 11.9375 21.378906 10.585938 C 21.480469 10.542969 21.582031 10.5 21.683594 10.457031 C 21.800781 10.402344 21.957031 10.371094 22.070312 10.457031 C 22.09375 10.472656 22.117188 10.492188 22.140625 10.507812 C 23.753906 11.734375 24.742188 13.585938 24.902344 15.554688 C 24.921875 15.804688 24.929688 16.054688 24.921875 16.308594 " fill-opacity="1" fill-rule="nonzero"/></g><path fill="#59403b" d="M 19.328125 6.554688 C 19.328125 6.691406 19.269531 6.789062 19.183594 6.851562 C 19.160156 6.832031 19.136719 6.816406 19.109375 6.796875 C 19.066406 6.84375 19.019531 6.882812 18.972656 6.925781 C 18.773438 6.9375 18.558594 6.8125 18.558594 6.554688 C 18.558594 6.457031 18.558594 6.363281 18.550781 6.269531 C 18.5 5.40625 18.210938 4.609375 17.691406 3.921875 C 16.332031 4.992188 14.707031 5.558594 13.046875 5.992188 C 12.84375 6.046875 12.636719 6.097656 12.433594 6.148438 C 12.398438 6.15625 12.367188 6.164062 12.335938 6.171875 C 12.179688 6.210938 11.960938 6.257812 11.695312 6.3125 C 11.695312 6.316406 11.695312 6.316406 11.695312 6.316406 C 11.535156 6.347656 11.359375 6.386719 11.171875 6.429688 C 9.300781 6.859375 6.304688 7.707031 7.023438 9.347656 C 7.046875 9.402344 7.074219 9.460938 7.109375 9.515625 C 7.355469 9.945312 6.691406 10.332031 6.445312 9.90625 C 6.402344 9.828125 6.363281 9.757812 6.328125 9.683594 C 5.316406 7.5 8.523438 6.371094 10.085938 5.941406 C 10.105469 5.933594 10.128906 5.929688 10.148438 5.921875 C 10.554688 5.8125 10.96875 5.710938 11.382812 5.609375 C 11.683594 5.539062 11.984375 5.46875 12.285156 5.394531 C 12.757812 5.277344 13.230469 5.15625 13.699219 5.019531 C 15.066406 4.613281 16.375 4.070312 17.472656 3.109375 C 17.621094 2.980469 17.871094 2.949219 18.015625 3.109375 C 18.746094 3.933594 19.191406 4.921875 19.300781 6 C 19.320312 6.183594 19.328125 6.367188 19.328125 6.554688 " fill-opacity="1" fill-rule="nonzero"/><g clip-path="url(#779c4db608)"><path fill="#59403b" d="M 14.15625 2.335938 C 14.011719 3.488281 13.179688 4.472656 12.464844 5.335938 C 11.566406 4.9375 10.800781 4.28125 10.289062 3.433594 C 10.015625 2.980469 9.515625 1.65625 10.589844 1.863281 C 11.1875 1.976562 11.480469 2.65625 11.722656 3.140625 C 11.910156 3.511719 12.410156 3.292969 12.441406 2.949219 C 12.492188 2.339844 12.625 1.421875 13.339844 1.246094 C 14.054688 1.066406 14.226562 1.792969 14.15625 2.335938 Z M 14.65625 1.023438 C 14.238281 0.40625 13.441406 0.300781 12.808594 0.640625 C 12.300781 0.914062 12.023438 1.367188 11.863281 1.878906 C 11.535156 1.445312 11.109375 1.113281 10.519531 1.082031 C 9.742188 1.039062 9.136719 1.597656 9.140625 2.386719 C 9.140625 3.710938 10.214844 4.875 11.382812 5.609375 C 11.414062 5.628906 11.445312 5.648438 11.472656 5.667969 C 11.792969 5.863281 12.121094 6.027344 12.433594 6.148438 C 12.636719 6.097656 12.84375 6.046875 13.046875 5.992188 C 13.066406 5.933594 13.074219 5.871094 13.070312 5.804688 C 13.234375 5.605469 13.417969 5.382812 13.605469 5.136719 C 13.636719 5.097656 13.667969 5.058594 13.699219 5.019531 C 14.589844 3.839844 15.492188 2.265625 14.65625 1.023438 " fill-opacity="1" fill-rule="nonzero"/></g><path fill="#ffd3e2" d="M 14.15625 2.335938 C 14.011719 3.488281 13.179688 4.472656 12.464844 5.335938 C 11.566406 4.9375 10.800781 4.28125 10.289062 3.433594 C 10.015625 2.980469 9.515625 1.65625 10.589844 1.863281 C 11.1875 1.976562 11.480469 2.65625 11.722656 3.140625 C 11.910156 3.511719 12.410156 3.292969 12.441406 2.949219 C 12.492188 2.339844 12.625 1.421875 13.339844 1.246094 C 14.054688 1.066406 14.226562 1.792969 14.15625 2.335938 " fill-opacity="1" fill-rule="nonzero"/><g clip-path="url(#80c71c8c98)"><path fill="#59403b" d="M 24.144531 16.019531 C 23.46875 16.207031 22.789062 16.375 22.105469 16.523438 C 22.105469 16.523438 22.105469 16.523438 22.101562 16.523438 C 21.933594 16.5625 21.765625 16.59375 21.59375 16.628906 C 21.582031 16.644531 21.570312 16.660156 21.558594 16.675781 C 21.550781 16.691406 21.542969 16.707031 21.535156 16.726562 C 21.535156 16.726562 21.53125 16.730469 21.53125 16.734375 C 21.523438 16.75 21.519531 16.765625 21.515625 16.785156 C 21.507812 16.808594 21.507812 16.828125 21.503906 16.851562 C 21.484375 17.050781 21.460938 17.246094 21.441406 17.445312 C 21.703125 17.394531 21.964844 17.339844 22.226562 17.285156 C 22.832031 17.15625 23.433594 17.007812 24.03125 16.847656 C 24.0625 16.839844 24.089844 16.832031 24.117188 16.824219 C 24.128906 16.726562 24.140625 16.628906 24.144531 16.53125 C 24.15625 16.359375 24.164062 16.1875 24.160156 16.015625 C 24.15625 16.015625 24.152344 16.019531 24.144531 16.019531 Z M 24.144531 16.019531 C 23.46875 16.207031 22.789062 16.375 22.105469 16.523438 C 22.105469 16.523438 22.105469 16.523438 22.101562 16.523438 C 21.933594 16.5625 21.765625 16.59375 21.59375 16.628906 C 21.582031 16.644531 21.570312 16.660156 21.558594 16.675781 C 21.550781 16.691406 21.542969 16.707031 21.535156 16.726562 C 21.535156 16.726562 21.53125 16.730469 21.53125 16.734375 C 21.523438 16.75 21.519531 16.765625 21.515625 16.785156 C 21.507812 16.808594 21.507812 16.828125 21.503906 16.851562 C 21.484375 17.050781 21.460938 17.246094 21.441406 17.445312 C 21.703125 17.394531 21.964844 17.339844 22.226562 17.285156 C 22.832031 17.15625 23.433594 17.007812 24.03125 16.847656 C 24.0625 16.839844 24.089844 16.832031 24.117188 16.824219 C 24.128906 16.726562 24.140625 16.628906 24.144531 16.53125 C 24.15625 16.359375 24.164062 16.1875 24.160156 16.015625 C 24.15625 16.015625 24.152344 16.019531 24.144531 16.019531 Z M 24.144531 16.019531 C 23.46875 16.207031 22.789062 16.375 22.105469 16.523438 C 22.105469 16.523438 22.105469 16.523438 22.101562 16.523438 C 21.933594 16.5625 21.765625 16.59375 21.59375 16.628906 C 21.582031 16.644531 21.570312 16.660156 21.558594 16.675781 C 21.550781 16.691406 21.542969 16.707031 21.535156 16.726562 C 21.535156 16.726562 21.53125 16.730469 21.53125 16.734375 C 21.523438 16.75 21.519531 16.765625 21.515625 16.785156 C 21.507812 16.808594 21.507812 16.828125 21.503906 16.851562 C 21.484375 17.050781 21.460938 17.246094 21.441406 17.445312 C 21.703125 17.394531 21.964844 17.339844 22.226562 17.285156 C 22.832031 17.15625 23.433594 17.007812 24.03125 16.847656 C 24.0625 16.839844 24.089844 16.832031 24.117188 16.824219 C 24.128906 16.726562 24.140625 16.628906 24.144531 16.53125 C 24.15625 16.359375 24.164062 16.1875 24.160156 16.015625 C 24.15625 16.015625 24.152344 16.019531 24.144531 16.019531 Z M 21.601562 27.117188 C 21.261719 27.203125 20.921875 27.277344 20.578125 27.347656 C 20.304688 27.40625 20.03125 27.457031 19.757812 27.503906 C 19.21875 27.601562 18.671875 27.679688 18.128906 27.746094 C 17.871094 27.777344 17.613281 27.804688 17.355469 27.824219 C 16.65625 27.890625 15.953125 27.929688 15.246094 27.941406 C 14.992188 27.945312 14.734375 27.949219 14.480469 27.945312 C 13.78125 27.941406 13.085938 27.910156 12.390625 27.851562 C 12.132812 27.832031 11.875 27.808594 11.617188 27.777344 C 11.027344 27.714844 10.441406 27.632812 9.855469 27.53125 C 9.570312 27.484375 9.285156 27.429688 9.003906 27.371094 C 8.78125 27.328125 8.554688 27.28125 8.332031 27.230469 C 7.996094 27.050781 7.828125 26.527344 7.675781 26.21875 C 7.464844 25.789062 7.261719 25.355469 7.0625 24.917969 C 6.625 23.96875 6.21875 23.003906 5.835938 22.03125 C 5.484375 21.140625 5.15625 20.238281 4.851562 19.328125 C 4.617188 18.636719 4.378906 17.996094 4.234375 17.136719 C 4.210938 17.007812 4.191406 16.875 4.175781 16.734375 C 4.386719 16.792969 4.601562 16.851562 4.816406 16.90625 C 5.546875 17.097656 6.277344 17.265625 7.015625 17.410156 C 7.277344 17.464844 7.539062 17.511719 7.800781 17.558594 C 8.863281 17.746094 9.933594 17.886719 11.007812 17.980469 C 11.265625 18.003906 11.523438 18.023438 11.78125 18.039062 C 12.675781 18.101562 13.570312 18.128906 14.464844 18.125 C 14.71875 18.125 14.976562 18.121094 15.234375 18.113281 C 16.113281 18.09375 16.992188 18.039062 17.867188 17.957031 C 18.125 17.933594 18.386719 17.90625 18.644531 17.875 C 19.582031 17.769531 20.515625 17.625 21.441406 17.445312 C 21.703125 17.394531 21.964844 17.339844 22.226562 17.285156 C 22.832031 17.15625 23.433594 17.007812 24.03125 16.847656 C 24.0625 16.839844 24.089844 16.832031 24.117188 16.824219 C 24.277344 16.78125 24.4375 16.738281 24.597656 16.691406 C 24.570312 16.871094 24.539062 17.050781 24.511719 17.230469 C 23.945312 20.632812 22.976562 23.953125 21.601562 27.117188 Z M 25.273438 15.785156 C 25.183594 15.660156 25.054688 15.5625 24.902344 15.554688 C 24.859375 15.550781 24.816406 15.558594 24.769531 15.570312 C 24.679688 15.59375 24.582031 15.664062 24.539062 15.746094 C 24.511719 15.800781 24.492188 15.863281 24.488281 15.921875 C 24.378906 15.957031 24.269531 15.984375 24.160156 16.015625 C 24.15625 16.015625 24.152344 16.019531 24.144531 16.019531 C 23.46875 16.207031 22.789062 16.375 22.105469 16.523438 C 22.105469 16.523438 22.105469 16.523438 22.101562 16.523438 C 21.933594 16.5625 21.765625 16.59375 21.59375 16.628906 C 20.570312 16.835938 19.535156 17 18.5 17.117188 C 18.351562 17.136719 18.203125 17.148438 18.054688 17.164062 C 17.074219 17.265625 16.09375 17.328125 15.109375 17.347656 C 14.898438 17.351562 14.6875 17.355469 14.476562 17.355469 C 13.5 17.359375 12.527344 17.324219 11.554688 17.253906 C 11.4375 17.246094 11.320312 17.234375 11.203125 17.226562 C 11.199219 17.222656 11.199219 17.226562 11.199219 17.226562 C 9.007812 17.039062 6.828125 16.65625 4.691406 16.078125 C 4.648438 16.070312 4.609375 16.058594 4.570312 16.046875 C 4.464844 16.015625 4.359375 15.988281 4.253906 15.957031 C 4.191406 15.832031 4.0625 15.734375 3.914062 15.742188 C 3.894531 15.742188 3.878906 15.742188 3.863281 15.746094 C 3.398438 15.808594 3.390625 16.421875 3.410156 16.78125 C 3.457031 17.621094 3.734375 18.402344 3.996094 19.191406 C 4.382812 20.367188 4.808594 21.53125 5.273438 22.679688 C 5.699219 23.75 6.160156 24.804688 6.652344 25.847656 C 6.894531 26.363281 7.074219 26.921875 7.417969 27.382812 C 7.863281 27.976562 8.4375 28.050781 9.125 28.171875 C 9.652344 28.261719 10.179688 28.347656 10.710938 28.417969 C 11.769531 28.5625 12.835938 28.664062 13.90625 28.695312 C 14.085938 28.703125 14.269531 28.707031 14.453125 28.707031 C 15.449219 28.71875 16.445312 28.679688 17.433594 28.589844 C 17.640625 28.570312 17.847656 28.550781 18.058594 28.527344 C 18.574219 28.46875 19.085938 28.398438 19.597656 28.3125 C 19.863281 28.269531 20.125 28.222656 20.390625 28.171875 C 20.496094 28.152344 20.597656 28.128906 20.699219 28.109375 C 21.09375 28.03125 21.511719 27.984375 21.886719 27.84375 C 22.21875 27.722656 22.292969 27.445312 22.425781 27.140625 C 22.574219 26.789062 22.71875 26.4375 22.855469 26.082031 C 23.136719 25.375 23.394531 24.660156 23.636719 23.9375 C 23.6875 23.777344 23.738281 23.617188 23.792969 23.460938 C 24.242188 22.058594 24.617188 20.632812 24.921875 19.191406 C 25.074219 18.472656 25.203125 17.75 25.320312 17.019531 C 25.359375 16.765625 25.429688 16.515625 25.433594 16.253906 C 25.433594 16.101562 25.375 15.921875 25.273438 15.785156 Z M 24.144531 16.019531 C 23.46875 16.207031 22.789062 16.375 22.105469 16.523438 C 22.105469 16.523438 22.105469 16.523438 22.101562 16.523438 C 21.933594 16.5625 21.765625 16.59375 21.59375 16.628906 C 21.582031 16.644531 21.570312 16.660156 21.558594 16.675781 C 21.550781 16.691406 21.542969 16.707031 21.535156 16.726562 C 21.535156 16.726562 21.53125 16.730469 21.53125 16.734375 C 21.523438 16.75 21.519531 16.765625 21.515625 16.785156 C 21.507812 16.808594 21.507812 16.828125 21.503906 16.851562 C 21.484375 17.050781 21.460938 17.246094 21.441406 17.445312 C 21.703125 17.394531 21.964844 17.339844 22.226562 17.285156 C 22.832031 17.15625 23.433594 17.007812 24.03125 16.847656 C 24.0625 16.839844 24.089844 16.832031 24.117188 16.824219 C 24.128906 16.726562 24.140625 16.628906 24.144531 16.53125 C 24.15625 16.359375 24.164062 16.1875 24.160156 16.015625 C 24.15625 16.015625 24.152344 16.019531 24.144531 16.019531 Z M 24.144531 16.019531 C 23.46875 16.207031 22.789062 16.375 22.105469 16.523438 C 22.105469 16.523438 22.105469 16.523438 22.101562 16.523438 C 21.933594 16.5625 21.765625 16.59375 21.59375 16.628906 C 21.582031 16.644531 21.570312 16.660156 21.558594 16.675781 C 21.550781 16.691406 21.542969 16.707031 21.535156 16.726562 C 21.535156 16.726562 21.53125 16.730469 21.53125 16.734375 C 21.523438 16.75 21.519531 16.765625 21.515625 16.785156 C 21.507812 16.808594 21.507812 16.828125 21.503906 16.851562 C 21.484375 17.050781 21.460938 17.246094 21.441406 17.445312 C 21.703125 17.394531 21.964844 17.339844 22.226562 17.285156 C 22.832031 17.15625 23.433594 17.007812 24.03125 16.847656 C 24.0625 16.839844 24.089844 16.832031 24.117188 16.824219 C 24.128906 16.726562 24.140625 16.628906 24.144531 16.53125 C 24.15625 16.359375 24.164062 16.1875 24.160156 16.015625 C 24.15625 16.015625 24.152344 16.019531 24.144531 16.019531 Z M 24.144531 16.019531 C 23.46875 16.207031 22.789062 16.375 22.105469 16.523438 C 22.105469 16.523438 22.105469 16.523438 22.101562 16.523438 C 21.933594 16.5625 21.765625 16.59375 21.59375 16.628906 C 21.582031 16.644531 21.570312 16.660156 21.558594 16.675781 C 21.550781 16.691406 21.542969 16.707031 21.535156 16.726562 C 21.535156 16.726562 21.53125 16.730469 21.53125 16.734375 C 21.523438 16.75 21.519531 16.765625 21.515625 16.785156 C 21.507812 16.808594 21.507812 16.828125 21.503906 16.851562 C 21.484375 17.050781 21.460938 17.246094 21.441406 17.445312 C 21.703125 17.394531 21.964844 17.339844 22.226562 17.285156 C 22.832031 17.15625 23.433594 17.007812 24.03125 16.847656 C 24.0625 16.839844 24.089844 16.832031 24.117188 16.824219 C 24.128906 16.726562 24.140625 16.628906 24.144531 16.53125 C 24.15625 16.359375 24.164062 16.1875 24.160156 16.015625 C 24.15625 16.015625 24.152344 16.019531 24.144531 16.019531 " fill-opacity="1" fill-rule="nonzero"/></g><g clip-path="url(#ddc23fdb2a)"><path fill="#59403b" d="M 9.890625 27.644531 C 8.800781 24.207031 8.082031 20.664062 7.753906 17.070312 C 7.707031 16.582031 6.9375 16.578125 6.984375 17.070312 C 7.320312 20.734375 8.039062 24.34375 9.152344 27.851562 C 9.300781 28.320312 10.042969 28.121094 9.890625 27.644531 " fill-opacity="1" fill-rule="nonzero"/></g><g clip-path="url(#53830e88c2)"><path fill="#59403b" d="M 12.402344 28.015625 C 12.433594 28.511719 11.664062 28.507812 11.632812 28.015625 C 11.628906 27.9375 11.625 27.859375 11.617188 27.777344 C 11.414062 24.511719 11.210938 21.246094 11.007812 17.980469 C 11 17.84375 10.992188 17.707031 10.984375 17.570312 C 10.972656 17.386719 11.070312 17.273438 11.199219 17.226562 C 11.199219 17.226562 11.199219 17.222656 11.203125 17.226562 C 11.320312 17.234375 11.4375 17.246094 11.554688 17.253906 C 11.660156 17.3125 11.742188 17.417969 11.753906 17.570312 C 11.761719 17.726562 11.773438 17.882812 11.78125 18.039062 C 11.984375 21.308594 12.1875 24.582031 12.390625 27.851562 C 12.394531 27.90625 12.398438 27.960938 12.402344 28.015625 " fill-opacity="1" fill-rule="nonzero"/></g><g clip-path="url(#171d085fef)"><path fill="#59403b" d="M 15.246094 27.941406 C 15.246094 27.996094 15.242188 28.050781 15.238281 28.109375 C 15.203125 28.601562 14.433594 28.601562 14.46875 28.109375 C 14.472656 28.054688 14.476562 28 14.480469 27.945312 C 14.6875 24.675781 14.679688 21.394531 14.464844 18.125 C 14.453125 17.941406 14.441406 17.757812 14.425781 17.570312 C 14.421875 17.484375 14.4375 17.410156 14.476562 17.355469 C 14.6875 17.355469 14.898438 17.351562 15.109375 17.347656 C 15.15625 17.40625 15.1875 17.480469 15.195312 17.570312 C 15.207031 17.753906 15.222656 17.933594 15.234375 18.113281 C 15.449219 21.386719 15.457031 24.667969 15.246094 27.941406 " fill-opacity="1" fill-rule="nonzero"/></g><g clip-path="url(#5b6876b1b8)"><path fill="#59403b" d="M 18.675781 17.449219 C 18.664062 17.589844 18.652344 17.734375 18.644531 17.875 C 18.390625 21.160156 18.21875 24.453125 18.128906 27.746094 C 18.121094 27.941406 18.117188 28.136719 18.113281 28.328125 C 18.109375 28.40625 18.089844 28.472656 18.058594 28.527344 C 17.847656 28.550781 17.640625 28.570312 17.433594 28.589844 C 17.375 28.527344 17.339844 28.441406 17.34375 28.328125 C 17.347656 28.160156 17.351562 27.992188 17.355469 27.824219 C 17.445312 24.53125 17.617188 21.242188 17.867188 17.957031 C 17.878906 17.789062 17.894531 17.617188 17.90625 17.449219 C 17.917969 17.320312 17.972656 17.226562 18.054688 17.164062 C 18.203125 17.148438 18.351562 17.136719 18.5 17.117188 C 18.609375 17.171875 18.6875 17.28125 18.675781 17.449219 " fill-opacity="1" fill-rule="nonzero"/></g><g clip-path="url(#cdce44ba5f)"><path fill="#59403b" d="M 22.273438 16.851562 C 22.257812 16.996094 22.242188 17.140625 22.226562 17.285156 C 21.871094 20.667969 21.324219 24.027344 20.578125 27.347656 C 20.519531 27.621094 20.457031 27.898438 20.390625 28.171875 C 20.125 28.222656 19.863281 28.269531 19.597656 28.3125 C 19.589844 28.265625 19.59375 28.214844 19.605469 28.160156 C 19.65625 27.941406 19.707031 27.722656 19.757812 27.503906 C 20.515625 24.1875 21.078125 20.828125 21.441406 17.445312 C 21.460938 17.246094 21.484375 17.050781 21.503906 16.851562 C 21.507812 16.828125 21.507812 16.808594 21.515625 16.785156 C 21.519531 16.765625 21.523438 16.75 21.53125 16.734375 C 21.53125 16.730469 21.535156 16.726562 21.535156 16.726562 C 21.542969 16.707031 21.550781 16.691406 21.558594 16.675781 C 21.570312 16.660156 21.582031 16.644531 21.59375 16.628906 C 21.765625 16.59375 21.933594 16.5625 22.101562 16.523438 C 22.105469 16.523438 22.105469 16.523438 22.105469 16.523438 C 22.214844 16.578125 22.289062 16.6875 22.273438 16.851562 " fill-opacity="1" fill-rule="nonzero"/></g><path fill="#59403b" d="M 22.15625 10.625 C 21.941406 8.71875 20.917969 7.039062 19.300781 6 C 19.28125 5.988281 19.265625 5.976562 19.246094 5.964844 C 19.113281 5.882812 18.886719 5.898438 18.78125 6.027344 C 18.707031 6.113281 18.632812 6.195312 18.550781 6.269531 C 17.414062 7.339844 15.480469 7.449219 14.027344 7.695312 C 12.167969 8.011719 10.296875 8.292969 8.488281 8.832031 C 8.003906 8.976562 7.503906 9.140625 7.023438 9.347656 C 6.785156 9.449219 6.550781 9.558594 6.328125 9.683594 C 5.652344 10.0625 5.054688 10.558594 4.667969 11.253906 C 4.078125 12.304688 4.078125 13.785156 4.570312 14.867188 C 4.773438 15.320312 5.4375 14.929688 5.234375 14.480469 C 5.089844 14.164062 5.003906 13.816406 4.988281 13.46875 C 4.921875 12.183594 5.546875 11.011719 6.675781 10.371094 C 8.035156 9.597656 9.6875 9.265625 11.207031 8.96875 C 12.753906 8.664062 14.3125 8.449219 15.859375 8.144531 C 16.960938 7.929688 18.121094 7.675781 18.972656 6.925781 C 19.019531 6.882812 19.066406 6.84375 19.109375 6.796875 C 19.136719 6.816406 19.160156 6.832031 19.183594 6.851562 C 20.402344 7.746094 21.214844 9.109375 21.386719 10.625 C 21.4375 11.113281 22.210938 11.117188 22.15625 10.625 " fill-opacity="1" fill-rule="nonzero"/><path fill="#59403b" d="M 22.007812 12.820312 C 21.804688 12.460938 21.25 12.785156 21.457031 13.144531 C 21.789062 13.734375 21.964844 14.363281 21.984375 15.042969 C 21.996094 15.453125 22.636719 15.453125 22.625 15.042969 C 22.605469 14.253906 22.398438 13.507812 22.007812 12.820312 " fill-opacity="1" fill-rule="nonzero"/></svg>