<svg xmlns="http://www.w3.org/2000/svg" xmlns:xlink="http://www.w3.org/1999/xlink" width="500" zoomAndPan="magnify" viewBox="0 0 375 374.999991" height="500" preserveAspectRatio="xMidYMid meet" version="1.0"><defs><g/><clipPath id="8f0f5e2025"><path d="M 117 89 L 247 89 L 247 212 L 117 212 Z M 117 89 " clip-rule="nonzero"/></clipPath><clipPath id="831d4ad101"><path d="M 126.917969 233.582031 L 93.488281 109.765625 L 231.785156 72.421875 L 265.214844 196.238281 Z M 126.917969 233.582031 " clip-rule="nonzero"/></clipPath><clipPath id="785603d2b7"><path d="M 126.917969 233.582031 L 93.488281 109.765625 L 231.785156 72.421875 L 265.214844 196.238281 Z M 126.917969 233.582031 " clip-rule="nonzero"/></clipPath><clipPath id="0cadd8daa3"><path d="M 149 87 L 228 87 L 228 157 L 149 157 Z M 149 87 " clip-rule="nonzero"/></clipPath><clipPath id="7b718537e3"><path d="M 129.082031 118.429688 L 186.238281 65.355469 L 245.441406 129.105469 L 188.285156 182.183594 Z M 129.082031 118.429688 " clip-rule="nonzero"/></clipPath><clipPath id="c246515991"><path d="M 129.082031 118.429688 L 186.238281 65.355469 L 245.441406 129.105469 L 188.285156 182.183594 Z M 129.082031 118.429688 " clip-rule="nonzero"/></clipPath><clipPath id="761bb77ebd"><path d="M 129.082031 118.429688 L 186.238281 65.355469 L 245.441406 129.105469 L 188.285156 182.183594 Z M 129.082031 118.429688 " clip-rule="nonzero"/></clipPath><clipPath id="8c83c2ed03"><path d="M 187.5 9.339844 L 240 9.339844 L 240 64.839844 L 187.5 64.839844 Z M 187.5 9.339844 " clip-rule="nonzero"/></clipPath><clipPath id="d59ad89448"><path d="M 90.449219 154 L 284.699219 154 L 284.699219 279.75 L 90.449219 279.75 Z M 90.449219 154 " clip-rule="nonzero"/></clipPath><clipPath id="a8d39c387a"><path d="M 90.449219 96 L 284.699219 96 L 284.699219 236 L 90.449219 236 Z M 90.449219 96 " clip-rule="nonzero"/></clipPath><clipPath id="f2dd091e33"><path d="M 90.449219 44 L 157 44 L 157 119 L 90.449219 119 Z M 90.449219 44 " clip-rule="nonzero"/></clipPath><clipPath id="6594c14b94"><path d="M 90.449219 75 L 157 75 L 157 145 L 90.449219 145 Z M 90.449219 75 " clip-rule="nonzero"/></clipPath><clipPath id="4d9cb78d8d"><path d="M 187 100 L 284.699219 100 L 284.699219 188 L 187 188 Z M 187 100 " clip-rule="nonzero"/></clipPath><clipPath id="4079b7a355"><path d="M 220 123 L 284.699219 123 L 284.699219 191 L 220 191 Z M 220 123 " clip-rule="nonzero"/></clipPath></defs><rect x="-37.5" width="450" fill="#ffffff" y="-37.499999" height="449.999989" fill-opacity="1"/><rect x="-37.5" width="450" fill="#f8f5f1" y="-37.499999" height="449.999989" fill-opacity="1"/><g clip-path="url(#8f0f5e2025)"><g clip-path="url(#831d4ad101)"><g clip-path="url(#785603d2b7)"><path fill="#ffffff" d="M 160.160156 210.972656 C 156.835938 210.34375 153.480469 209.046875 150.117188 206.9375 C 128.425781 193.324219 105.96875 155.921875 123.699219 131.683594 C 131.238281 121.382812 142.445312 112.292969 152.03125 103.9375 C 166.398438 91.410156 181.09375 86.019531 200.035156 91.925781 C 215.066406 96.609375 232.375 104.445312 241.238281 118.144531 C 246.046875 125.582031 247.941406 135.304688 244.503906 143.464844 C 241.671875 150.1875 235.757812 155.003906 230.445312 160.003906 C 212.324219 177.0625 189.832031 216.589844 160.160156 210.972656 " fill-opacity="1" fill-rule="nonzero"/></g></g></g><g clip-path="url(#0cadd8daa3)"><g clip-path="url(#7b718537e3)"><g clip-path="url(#c246515991)"><g clip-path="url(#761bb77ebd)"><path fill="#ffe2d4" d="M 150.648438 129.902344 C 150.046875 127.933594 149.792969 125.765625 149.976562 123.359375 C 151.15625 107.839844 164.914062 85.171875 182.96875 87.839844 C 190.640625 88.976562 198.699219 92.425781 205.910156 95.214844 C 216.710938 99.394531 223.769531 105.765625 225.957031 117.625 C 227.695312 127.03125 228.378906 138.558594 223.519531 147.203125 C 220.882812 151.894531 216.191406 155.667969 210.828125 156.128906 C 206.414062 156.511719 202.148438 154.695312 197.957031 153.257812 C 183.652344 148.34375 156.027344 147.445312 150.648438 129.902344 " fill-opacity="1" fill-rule="nonzero"/></g></g></g></g><g clip-path="url(#8c83c2ed03)"><path fill="#ffcad4" d="M 237.632812 27.976562 C 236.90625 24.835938 236.046875 21.726562 235.363281 18.578125 C 234.84375 16.179688 234.507812 13.53125 232.664062 11.71875 C 230.261719 9.363281 226.582031 9.332031 223.519531 10.144531 C 220.269531 11.007812 217.019531 12.363281 213.996094 13.828125 C 206.914062 17.265625 201.429688 22.714844 196.546875 28.78125 C 195.171875 30.488281 193.679688 32.4375 192.441406 34.53125 C 189.691406 37.035156 188.550781 41.167969 188.113281 44.789062 C 187.523438 49.722656 188.828125 54.695312 191.691406 58.777344 C 193.230469 60.972656 195.171875 62.914062 197.691406 63.941406 C 200.625 65.136719 204.144531 64.824219 207.203125 64.375 C 210.773438 63.851562 214.21875 62.753906 217.613281 61.566406 C 220.253906 60.648438 222.941406 59.859375 225.5625 58.890625 C 228.234375 57.902344 230.851562 56.726562 233.070312 54.914062 C 235.445312 52.972656 236.96875 50.179688 237.964844 47.328125 C 240.144531 41.066406 239.089844 34.265625 237.632812 27.976562 Z M 237.632812 27.976562 " fill-opacity="1" fill-rule="nonzero"/></g><g clip-path="url(#d59ad89448)"><path stroke-linecap="butt" transform="matrix(0.544911, 0, 0, 0.545055, 90.449559, 0.38185)" fill="none" stroke-linejoin="miter" d="M 44.258298 340.707203 C 40.000151 341.208873 35.742004 341.710543 28.587743 343.401887 C 21.44782 345.09323 11.418951 347.981415 5.899131 352.302942 C 0.379311 356.617302 -0.617124 362.386504 3.081872 366.973199 C 6.780869 371.552727 15.182465 374.928248 29.52683 378.310936 C 43.878363 381.686456 64.187 385.083477 84.366604 387.340991 C 104.553375 389.598505 124.611112 390.716512 135.392683 391.103515 C 146.167086 391.48335 147.672492 391.103515 150.869686 394.801537 C 154.066881 398.49956 158.963033 406.268275 161.457705 416.050835 C 163.966715 425.833396 164.088581 437.608302 162.647693 447.763531 C 161.206804 457.911594 158.203162 466.43998 152.367923 473.578024 C 146.539853 480.730402 137.887355 486.492437 131.249234 490.878464 C 124.611112 495.271658 119.973029 498.281677 120.53218 501.162694 C 121.091331 504.036546 126.862052 506.802896 138.446506 508.487073 C 150.038129 510.178417 167.472159 510.809087 182.318325 510.930922 C 197.17166 511.059922 209.458637 510.680087 217.480298 508.673408 C 225.501959 506.659562 229.258304 503.033206 229.17945 500.331356 C 229.100595 497.629506 225.179372 495.866495 219.537685 492.920977 C 213.903168 489.968292 206.541017 485.847433 200.419035 479.211059 C 194.297052 472.567518 189.408069 463.422795 186.956408 454.399906 C 184.519085 445.36985 184.519085 436.468795 185.522688 428.771747 C 186.519124 421.060366 188.5335 414.538659 191.537142 408.647623 C 194.547953 402.756587 198.562368 397.489054 202.383231 394.357201 C 206.196925 391.232515 209.838573 390.222009 220.74201 389.663006 C 231.652616 389.096835 249.817843 388.967835 267.180187 387.971662 C 284.542531 386.968322 301.087655 385.090644 315.130938 382.26696 C 329.167053 379.450443 340.701327 375.687919 347.848419 371.796395 C 355.00268 367.912038 357.748253 363.89868 353.741007 359.448152 C 349.726592 354.997625 338.952189 350.109928 329.167053 346.791741 C 319.389086 343.466387 310.62189 341.710543 301.840358 339.961865 " stroke="#000000" stroke-width="1.78" stroke-opacity="1" stroke-miterlimit="22.926001"/></g><path stroke-linecap="butt" transform="matrix(0.544911, 0, 0, 0.545055, 90.449559, 0.38185)" fill="none" stroke-linejoin="miter" d="M 141.629364 391.311349 C 151.92347 391.490517 162.20324 391.669685 174.62642 391.447517 C 187.0496 391.232515 201.623359 390.587511 216.182782 389.956841 " stroke="#000000" stroke-width="1.78" stroke-opacity="1" stroke-miterlimit="22.926001"/><g clip-path="url(#a8d39c387a)"><path stroke-linecap="butt" transform="matrix(0.544911, 0, 0, 0.545055, 90.449559, 0.38185)" fill="none" stroke-linejoin="miter" d="M 251.237225 234.131045 C 264.592323 234.288712 277.940253 234.439213 286.621425 235.657554 C 295.309765 236.883062 299.331349 239.147742 301.087655 256.713351 C 302.85113 274.271793 302.349328 307.109662 301.790178 327.29112 C 301.231027 347.472578 300.60019 354.990458 294.521219 360.12899 C 288.442248 365.267522 276.907974 368.026705 255.789285 370.162385 C 234.670596 372.290898 203.960322 373.803074 176.131825 374.111243 C 148.303328 374.419411 123.356608 373.552239 102.302435 371.667394 C 81.241095 369.789716 64.072303 366.908698 55.03987 361.576665 C 46.007436 356.251799 45.140036 348.483085 44.702751 333.877328 C 44.258298 319.278737 44.258298 297.843105 44.258298 281.796839 C 44.258298 265.75774 44.258298 255.100841 45.011001 248.579134 C 45.756535 242.057427 47.269109 239.678079 49.591735 238.051236 C 51.907192 236.417226 55.03987 235.542887 65.592046 235.069884 C 76.137053 234.589714 94.087222 234.518047 112.051729 234.439213 " stroke="#000000" stroke-width="1.78" stroke-opacity="1" stroke-miterlimit="22.926001"/></g><path stroke-linecap="butt" transform="matrix(0.544911, 0, 0, 0.545055, 90.449559, 0.38185)" fill="none" stroke-linejoin="miter" d="M 153.120626 189.1671 C 146.848103 182.530726 140.589917 175.880018 135.629247 168.612973 C 130.682915 161.338762 127.041267 153.441046 124.410391 144.539991 C 121.779516 135.638936 120.152244 125.741709 119.213158 119.091001 C 118.266903 112.44746 118.023171 109.057605 117.77227 105.682085 " stroke="#000000" stroke-width="1.78" stroke-opacity="1" stroke-miterlimit="22.926001"/><path stroke-linecap="butt" transform="matrix(0.544911, 0, 0, 0.545055, 90.449559, 0.38185)" fill="none" stroke-linejoin="miter" d="M 150.64746 168.727641 C 148.547061 168.039636 146.977138 164.778783 146.733405 161.431929 C 146.482504 158.077908 147.543457 154.63072 150.64746 151.248033 C 153.751463 147.872512 158.891347 144.539991 163.500756 141.881142 C 168.110164 139.222292 172.181928 137.208446 172.999148 138.032618 C 173.8092 138.842456 171.371876 142.483145 169.522378 145.356996 C 167.67288 148.238014 166.418375 150.366527 164.597551 153.627381 C 162.776727 156.888234 160.396753 161.281428 157.887744 164.413281 C 155.378734 167.537967 152.747859 169.422812 150.64746 168.727641 Z M 150.64746 168.727641 " stroke="#000000" stroke-width="1.78" stroke-opacity="1" stroke-miterlimit="22.926001"/><path stroke-linecap="butt" transform="matrix(0.544911, 0, 0, 0.545055, 90.449559, 0.38185)" fill="none" stroke-linejoin="miter" d="M 124.238345 141.587306 C 126.030495 139.430126 127.643429 134.313095 127.621923 128.737394 C 127.607586 123.168859 125.980314 117.163156 123.026852 112.361459 C 120.080558 107.56693 115.822411 103.990741 113.693338 103.682572 C 111.557095 103.367237 111.557095 106.312755 111.248846 110.791949 C 110.940596 115.271144 110.309759 121.291181 111.471072 126.766548 C 112.632385 132.249082 115.578679 137.208446 118.030339 140.082297 C 120.482 142.948981 122.453364 143.751653 124.231176 141.58014 Z M 124.238345 141.587306 " stroke="#000000" stroke-width="1.78" stroke-opacity="1" stroke-miterlimit="22.926001"/><path stroke-linecap="butt" transform="matrix(0.544911, 0, 0, 0.545055, 90.449559, 0.38185)" fill="none" stroke-linejoin="miter" d="M 80.767967 165.187286 C 82.617466 164.972284 85.628277 161.840432 87.65699 158.479244 C 89.70004 155.13239 90.760993 151.549035 90.510092 148.173514 C 90.259191 144.790826 88.689268 141.587306 87.55663 137.581115 C 86.43116 133.567757 85.742974 128.737394 84.273412 128.121057 C 82.796681 127.490386 80.538572 131.066575 78.6604 135.1731 C 76.782227 139.279625 75.276821 143.909321 75.147787 148.13768 C 75.018752 152.373206 76.280425 156.193063 77.248186 159.44675 C 78.223115 162.707604 78.911301 165.402287 80.760799 165.180119 Z M 80.767967 165.187286 " stroke="#000000" stroke-width="1.78" stroke-opacity="1" stroke-miterlimit="22.926001"/><path stroke-linecap="butt" transform="matrix(0.544911, 0, 0, 0.545055, 90.449559, 0.38185)" fill="none" stroke-linejoin="miter" d="M 146.317627 187.411256 C 144.030844 184.709406 141.149067 181.212051 136.89092 178.947371 C 132.632773 176.689857 126.991087 175.686517 121.822528 174.633011 C 116.6468 173.558004 111.951368 172.439997 111.012282 173.529337 C 110.073196 174.633011 112.890455 177.951198 116.783003 181.649221 C 120.668383 185.347243 125.621884 189.417935 130.439182 191.331447 C 135.270817 193.237792 139.973417 192.986957 143.543379 193.051458 C 147.113341 193.108791 149.557833 193.488627 149.9306 192.743289 C 150.310536 191.990784 148.611578 190.113106 146.331964 187.411256 Z M 146.317627 187.411256 " stroke="#000000" stroke-width="1.78" stroke-opacity="1" stroke-miterlimit="22.926001"/><path stroke-linecap="butt" transform="matrix(0.544911, 0, 0, 0.545055, 90.449559, 0.38185)" fill="none" stroke-linejoin="miter" d="M 127.550237 167.537967 C 127.241988 164.972284 124.102142 160.328256 120.309953 157.483071 C 116.517765 154.63072 112.073234 153.56288 107.177082 153.369379 C 102.288098 153.183045 96.96183 153.871049 95.549616 154.65222 C 94.137402 155.433392 96.65358 156.307731 99.248613 158.156742 C 101.850814 160.01292 104.553375 162.829438 108.488935 165.151452 C 112.438833 167.473466 117.643235 169.286644 121.499941 169.953148 C 125.349478 170.612486 127.858487 170.110816 127.550237 167.537967 Z M 127.550237 167.537967 " stroke="#000000" stroke-width="1.78" stroke-opacity="1" stroke-miterlimit="22.926001"/><g clip-path="url(#f2dd091e33)"><path stroke-linecap="butt" transform="matrix(0.544911, 0, 0, 0.545055, 90.449559, 0.38185)" fill="none" stroke-linejoin="miter" d="M 63.527489 157.296737 C 63.749716 155.19689 60.86794 151.312533 58.423448 147.958512 C 55.978956 144.611658 53.971748 141.787974 50.021851 140.440633 C 46.071954 139.093291 40.179366 139.222292 35.921219 139.186458 C 31.663072 139.157791 29.032196 138.971457 29.620021 139.322626 C 30.222184 139.666628 34.043046 140.540967 37.111206 143.30015 C 40.179366 146.059334 42.501992 150.703363 45.627501 153.799382 C 48.760178 156.902568 52.710075 158.472077 56.351723 159.102748 C 59.993371 159.733419 63.312432 159.410917 63.527489 157.31107 Z M 63.527489 157.296737 " stroke="#000000" stroke-width="1.78" stroke-opacity="1" stroke-miterlimit="22.926001"/></g><path stroke-linecap="butt" transform="matrix(0.544911, 0, 0, 0.545055, 90.449559, 0.38185)" fill="none" stroke-linejoin="miter" d="M 59.74247 187.318089 C 60.488004 188.60093 63.749716 192.177119 66.452277 194.972136 C 69.14767 197.759987 71.276744 199.759499 73.807259 201.802012 C 76.352111 203.837358 79.291236 205.908537 81.52067 207.793382 C 83.750104 209.67106 85.248341 211.362404 85.499242 210.889401 C 85.750143 210.423565 84.746539 207.793382 83.843296 204.403528 C 82.932884 201.02084 82.122832 196.878481 80.022433 194.090631 C 77.922034 191.30278 74.538456 189.862271 71.39861 189.0811 C 68.273101 188.299928 65.376988 188.170928 63.061531 187.611924 C 60.738905 187.052921 58.989767 186.042414 59.74247 187.332422 Z M 59.74247 187.318089 " stroke="#000000" stroke-width="1.78" stroke-opacity="1" stroke-miterlimit="22.926001"/><g clip-path="url(#6594c14b94)"><path stroke-linecap="butt" transform="matrix(0.544911, 0, 0, 0.545055, 90.449559, 0.38185)" fill="none" stroke-linejoin="miter" d="M 61.563294 197.939155 C 59.548918 196.11881 54.918003 194.807302 51.118647 195.086804 C 47.326458 195.373472 44.380164 197.25115 41.118452 199.816833 C 37.85674 202.389682 34.286779 205.650536 34.071721 206.811543 C 33.849494 207.97255 36.982171 207.026544 40.810203 206.84021 C 44.631065 206.646708 49.147282 207.220045 52.83911 206.933377 C 56.538107 206.646708 59.419883 205.521535 61.183358 203.801524 C 62.932496 202.081513 63.563332 199.759499 61.563294 197.939155 Z M 61.563294 197.939155 " stroke="#000000" stroke-width="1.78" stroke-opacity="1" stroke-miterlimit="22.926001"/></g><path stroke-linecap="butt" transform="matrix(0.544911, 0, 0, 0.545055, 90.449559, 0.38185)" fill="none" stroke-linejoin="miter" d="M 78.45251 228.118174 C 78.108418 226.957167 80.739293 224.699653 83.592395 223.173144 C 86.438328 221.632301 89.506488 220.822463 93.298677 221.230965 C 97.090865 221.639468 101.599913 223.273478 104.331149 224.871654 C 107.062384 226.469831 108.001471 228.032174 106.682449 228.691511 C 105.363427 229.350849 101.793465 229.100014 97.872242 229.071347 C 93.951019 229.04268 89.692872 229.229015 85.900684 229.293515 C 82.108495 229.350849 78.789434 229.293515 78.438173 228.132508 Z M 78.45251 228.118174 " stroke="#000000" stroke-width="1.78" stroke-opacity="1" stroke-miterlimit="22.926001"/><path stroke-linecap="butt" transform="matrix(0.544911, 0, 0, 0.545055, 90.449559, 0.38185)" fill="none" stroke-linejoin="miter" d="M 234.039759 42.908863 C 234.233311 40.902184 234.29066 37.712998 236.23335 34.982481 C 238.168871 32.251964 241.996903 30.001617 245.882283 28.267273 C 249.767663 26.547262 253.710392 25.357588 257.731975 24.511916 C 261.739221 23.659078 265.818153 23.157408 265.058282 24.318415 C 264.312748 25.479422 258.72841 28.303107 253.559851 31.176958 C 248.391292 34.057975 243.631343 37.01066 240.297945 39.58351 C 236.978884 42.149192 235.100712 44.342206 234.312166 45.03021 C 233.530789 45.718214 233.839038 44.901209 234.03259 42.901697 Z M 234.039759 42.908863 " stroke="#000000" stroke-width="1.78" stroke-opacity="1" stroke-miterlimit="22.926001"/><path stroke-linecap="butt" transform="matrix(0.544911, 0, 0, 0.545055, 90.449559, 0.38185)" fill="none" stroke-linejoin="miter" d="M 230.591663 53.881098 C 229.150775 49.43057 227.709887 44.980043 225.329913 41.497021 C 222.949938 38.021167 219.630877 35.512818 216.211456 33.291137 C 212.792035 31.06229 209.279422 29.120112 208.383347 30.087618 C 207.472935 31.06229 209.157556 34.946648 210.97838 38.429669 C 212.799203 41.912691 214.741893 44.980043 217.501804 47.302057 C 220.261714 49.616905 223.831676 51.193581 226.147133 52.161087 C 228.469758 53.128593 229.530711 53.508429 230.598832 53.881098 Z M 230.591663 53.881098 " stroke="#000000" stroke-width="1.78" stroke-opacity="1" stroke-miterlimit="22.926001"/><path stroke-linecap="butt" transform="matrix(0.544911, 0, 0, 0.545055, 90.449559, 0.38185)" fill="none" stroke-linejoin="miter" d="M 231.838999 29.722115 C 229.903478 29.378113 227.523504 25.357588 226.168639 21.007395 C 224.820942 16.650035 224.512692 11.948672 224.31914 8.071482 C 224.132757 4.179958 224.068239 1.112605 224.290466 0.86177 C 224.512692 0.610935 225.007326 3.176618 226.950016 5.7208 C 228.892706 8.257816 232.283453 10.773332 234.161625 13.711683 C 236.039798 16.657201 236.419734 20.039889 235.853414 23.386743 C 235.287095 26.740764 233.781689 30.058951 231.838999 29.722115 Z M 231.838999 29.722115 " stroke="#000000" stroke-width="1.78" stroke-opacity="1" stroke-miterlimit="22.926001"/><path stroke-linecap="butt" transform="matrix(0.544911, 0, 0, 0.545055, 90.449559, 0.38185)" fill="none" stroke-linejoin="miter" d="M 199.938739 59.901135 C 197.42973 55.830443 194.927889 51.752585 191.637502 49.029235 C 188.347116 46.298718 184.282521 44.922709 179.830822 45.331212 C 175.379122 45.739714 170.547487 47.932728 170.181889 49.122402 C 169.801953 50.312076 173.880885 50.49841 178.009998 52.161087 C 182.153447 53.816597 186.347077 56.94845 190.110591 58.797462 C 193.866936 60.646473 197.193166 61.212643 198.763089 61.17681 C 200.333012 61.148143 200.13946 60.517472 199.953076 59.901135 Z M 199.938739 59.901135 " stroke="#000000" stroke-width="1.78" stroke-opacity="1" stroke-miterlimit="22.926001"/><path stroke-linecap="butt" transform="matrix(0.544911, 0, 0, 0.545055, 90.449559, 0.38185)" fill="none" stroke-linejoin="miter" d="M 203.537375 71.339206 C 201.881429 70.493534 199.121519 69.798363 196.239742 69.296693 C 193.357966 68.80219 190.347155 68.486855 187.902663 69.461527 C 185.458171 70.429033 183.579998 72.686547 182.232302 75.789733 C 180.877437 78.892919 180.067385 82.841777 180.820088 83.372113 C 181.572791 83.90245 183.888248 81.021432 187.243152 79.229754 C 190.590887 77.438077 194.978069 76.750073 198.332973 76.097902 C 201.680708 75.438564 204.003334 74.822227 204.877903 73.998056 C 205.75964 73.188217 205.193321 72.177711 203.530206 71.339206 Z M 203.537375 71.339206 " stroke="#000000" stroke-width="1.78" stroke-opacity="1" stroke-miterlimit="22.926001"/><path stroke-linecap="butt" transform="matrix(0.544911, 0, 0, 0.545055, 90.449559, 0.38185)" fill="none" stroke-linejoin="miter" d="M 215.73116 75.8829 C 213.659435 73.439052 211.58771 70.988037 209.809898 68.30052 C 208.017749 65.613004 206.519512 62.660319 205.143141 59.779301 C 203.759602 56.898283 202.512265 54.081766 203.229125 53.759264 C 203.953154 53.451095 206.648546 55.636942 209.279422 57.650788 C 211.910297 59.657467 214.476655 61.470645 216.111096 63.792659 C 217.738367 66.107507 218.426553 68.931191 218.648779 71.217372 C 218.871006 73.510719 218.620105 75.259397 218.046617 75.947401 C 217.487466 76.642572 216.612898 76.262736 215.73116 75.890067 Z M 215.73116 75.8829 " stroke="#000000" stroke-width="1.78" stroke-opacity="1" stroke-miterlimit="22.926001"/><path stroke-linecap="butt" transform="matrix(0.544911, 0, 0, 0.545055, 90.449559, 0.38185)" fill="none" stroke-linejoin="miter" d="M 196.927928 59.14863 C 200.311506 62.846653 203.702253 66.551843 206.390477 69.712362 C 209.093038 72.880049 211.093077 75.510232 213.100285 78.140414 " stroke="#000000" stroke-width="1.78" stroke-opacity="1" stroke-miterlimit="22.926001"/><path stroke-linecap="butt" transform="matrix(0.544911, 0, 0, 0.545055, 90.449559, 0.38185)" fill="none" stroke-linejoin="miter" d="M 233.222539 55.393274 C 233.559463 50.512744 233.903556 45.632214 233.738678 40.651349 C 233.580969 35.670485 232.928626 30.582121 232.283453 25.486589 " stroke="#000000" stroke-width="1.78" stroke-opacity="1" stroke-miterlimit="22.926001"/><path stroke-linecap="butt" transform="matrix(0.544911, 0, 0, 0.545055, 90.449559, 0.38185)" fill="none" stroke-linejoin="miter" d="M 80.767967 165.187286 C 78.746423 170.390318 76.739215 175.59335 76.387954 180.172878 C 76.036693 184.738073 77.362883 188.686931 78.681905 192.628622 " stroke="#000000" stroke-width="1.78" stroke-opacity="1" stroke-miterlimit="22.926001"/><path stroke-linecap="butt" transform="matrix(0.544911, 0, 0, 0.545055, 90.449559, 0.38185)" fill="none" stroke-linejoin="miter" d="M 63.240746 158.106575 C 65.871621 160.163421 68.509665 162.2131 70.796448 165.273286 C 73.090399 168.333472 75.033089 172.396997 76.968611 176.482022 " stroke="#000000" stroke-width="1.78" stroke-opacity="1" stroke-miterlimit="22.926001"/><path stroke-linecap="butt" transform="matrix(0.544911, 0, 0, 0.545055, 90.449559, 0.38185)" fill="none" stroke-linejoin="miter" d="M 62.781955 200.920506 C 64.75332 200.727005 66.731853 200.540671 68.868095 200.927673 C 71.018674 201.321842 73.326963 202.282181 75.649589 203.242521 " stroke="#000000" stroke-width="1.78" stroke-opacity="1" stroke-miterlimit="22.926001"/><path stroke-linecap="butt" transform="matrix(0.544911, 0, 0, 0.545055, 90.449559, 0.38185)" fill="none" stroke-linejoin="miter" d="M 85.499242 210.882234 C 88.051263 213.197082 90.603284 215.519096 93.341688 217.640443 C 96.080093 219.768956 99.012049 221.696801 103.169836 223.968649 C 107.34196 226.240496 112.739914 228.842012 118.152205 231.443528 " stroke="#000000" stroke-width="1.78" stroke-opacity="1" stroke-miterlimit="22.926001"/><path stroke-linecap="butt" transform="matrix(0.544911, 0, 0, 0.545055, 90.449559, 0.38185)" fill="none" stroke-linejoin="miter" d="M 146.697562 228.526677 C 148.238811 226.620332 148.991514 222.227138 147.550625 219.690122 C 146.109737 217.153107 142.46809 216.457936 140.21715 217.64761 C 137.959041 218.837284 137.091641 221.911803 137.371216 224.169317 C 137.650792 226.426831 139.09168 227.867339 140.969853 228.870679 C 142.848025 229.866852 145.170651 230.440189 146.697562 228.526677 Z M 146.697562 228.526677 " stroke="#000000" stroke-width="1.78" stroke-opacity="1" stroke-miterlimit="22.926001"/><path stroke-linecap="butt" transform="matrix(0.544911, 0, 0, 0.545055, 90.449559, 0.38185)" fill="none" stroke-linejoin="miter" d="M 140.812143 241.147255 C 140.962684 243.712937 141.098887 246.271453 140.618591 248.679468 C 140.131127 251.087483 139.019994 253.35933 137.45724 254.871506 C 135.901654 256.376516 133.887278 257.12902 131.478629 256.820852 C 129.06998 256.512683 126.252721 255.129508 124.618281 253.466831 C 122.991009 251.811321 122.546556 249.869142 121.29922 249.02347 C 120.051884 248.170632 117.980159 248.421466 116.037469 248.113298 C 114.101948 247.797963 112.281124 246.916457 110.897584 245.010112 C 109.521214 243.0966 108.582127 240.151082 109.148446 237.986735 C 109.707597 235.829555 111.779322 234.453547 114.230982 233.228039 C 116.668306 232.009698 119.492733 230.941858 122.159452 229.752184 C 124.819001 228.56251 127.328011 227.236669 129.958886 226.670499 C 132.589762 226.097162 135.349672 226.269163 135.170457 226.713499 C 134.976905 227.150668 131.851396 227.853006 128.431975 228.240008 C 125.012554 228.619844 121.320726 228.691511 117.901305 227.867339 C 114.481883 227.057501 111.349206 225.358991 109.377842 223.008309 C 107.406477 220.657628 106.589257 217.64761 107.148408 214.522924 C 107.707558 211.391071 109.657417 208.130217 112.037391 205.90137 C 114.417366 203.67969 117.241794 202.482849 118.059014 202.640517 C 118.869065 202.798185 117.679078 204.303194 117.557212 205.958704 C 117.428177 207.621381 118.367263 209.441726 119.908512 209.972062 C 121.44976 210.502399 123.578834 209.749894 123.951601 208.366719 C 124.331537 206.99071 122.947997 204.991198 121.822528 203.07052 C 120.689889 201.157008 119.808152 199.336663 120.661215 197.337151 C 121.507109 195.330472 124.080636 193.137458 127.069941 192.363453 C 130.066415 191.582282 133.500174 192.198619 135.657922 193.832629 C 137.822838 195.459473 138.718913 198.089655 138.919634 201.228675 C 139.120354 204.360528 138.618552 208.001217 138.926802 209.943395 C 139.24222 211.878407 140.36769 212.129242 140.998527 210.12973 C 141.629364 208.123051 141.75123 203.858858 142.912543 200.117835 C 144.066687 196.376812 146.267446 193.151792 149.407292 191.990784 C 152.53997 190.829777 156.611733 191.73995 158.389545 193.567461 C 160.167358 195.402139 159.672724 198.161323 159.228271 200.540671 C 158.790987 202.920019 158.41822 204.926698 159.507847 205.299367 C 160.611811 205.679202 163.178169 204.417861 163.300035 202.977352 C 163.42907 201.536843 161.106444 199.91 161.608246 199.472831 C 162.110048 199.028495 165.429109 199.780999 167.880769 202.640517 C 170.318092 205.492868 171.888015 210.437898 172.203434 213.827753 C 172.511683 217.21044 171.572597 219.030785 168.346728 220.471294 C 165.120859 221.911803 159.608207 222.979643 157.127872 224.262484 C 154.647537 225.538158 155.221025 227.050334 157.29275 227.523337 C 159.357306 227.989174 162.927268 227.43017 165.558143 226.240496 C 168.189019 225.050822 169.880808 223.230477 170.920255 223.889815 C 171.952533 224.549152 172.332468 227.681005 172.361143 230.877358 C 172.389817 234.080878 172.081567 237.341731 171.077964 240.222749 C 170.081529 243.0966 168.389739 245.612116 166.031271 246.708622 C 163.679971 247.812296 160.66916 247.489794 158.819661 247.840963 C 156.970163 248.177798 156.281978 249.188304 155.557949 250.406645 C 154.841089 251.632153 154.088387 253.072662 152.360755 253.982834 C 150.640291 254.893006 147.93773 255.272842 145.808656 254.477337 C 143.679583 253.703332 142.10966 251.74682 141.270934 248.837136 C 140.417871 245.927451 140.303173 242.043094 140.826481 241.161588 C 141.356957 240.280083 142.546944 242.408596 142.769171 245.29678 C 142.991397 248.177798 142.238694 251.818487 142.432247 254.31967 C 142.61863 256.828018 143.751269 258.211194 145.751307 258.927865 C 147.758515 259.651702 150.640291 259.709036 153.428876 259.343534 C 156.21746 258.956531 158.912853 258.146693 161.421862 256.713351 C 163.930872 255.272842 166.253497 253.201663 167.72306 251.259484 C 169.192622 249.317305 169.823459 247.496961 170.447127 244.902611 C 171.077964 242.301095 171.701632 238.911241 172.332468 235.528553 " stroke="#000000" stroke-width="1.78" stroke-opacity="1" stroke-miterlimit="22.926001"/><path stroke-linecap="butt" transform="matrix(0.544911, 0, 0, 0.545055, 90.449559, 0.38185)" fill="none" stroke-linejoin="miter" d="M 114.202308 233.228039 C 112.560699 236.03739 110.933427 238.861074 112.123415 240.552418 C 113.313402 242.250928 117.327817 242.831432 120.503506 244.028273 C 123.672026 245.23228 125.987483 247.052625 127.593249 248.829969 C 129.191846 250.621647 130.066415 252.370324 131.478629 252.972328 C 132.890843 253.567165 134.833533 253.000995 136.353275 252.427658 C 137.873018 251.861488 138.962645 251.280984 140.059441 250.707647 " stroke="#000000" stroke-width="1.78" stroke-opacity="1" stroke-miterlimit="22.926001"/><path stroke-linecap="butt" transform="matrix(0.544911, 0, 0, 0.545055, 90.449559, 0.38185)" fill="none" stroke-linejoin="miter" d="M 191.85256 221.596467 C 194.418918 222.922309 196.992445 224.22665 196.992445 226.799499 C 196.992445 229.372349 194.418918 233.192206 195.021081 236.288225 C 195.623243 239.391411 199.379588 241.770759 202.569614 242.458763 C 205.766809 243.146767 208.397684 242.150594 210.662961 241.992927 C 212.92107 241.828092 214.799242 242.523263 215.551945 244.178774 C 216.297479 245.84145 215.931881 248.471633 217.523309 249.661307 C 219.121907 250.850981 222.691869 250.600147 223.186502 247.719129 C 223.688304 244.838111 221.121946 239.319744 220.240208 238.158736 C 219.358471 236.997729 220.182859 240.201249 221.372847 243.211268 C 222.562834 246.221286 224.132757 249.037804 226.598754 249.56814 C 229.079089 250.098477 232.462667 248.349799 234.34084 245.970451 C 236.219013 243.591103 236.598948 240.581085 238.097185 239.083242 C 239.602591 237.578233 242.240635 237.578233 244.928859 237.327398 C 247.631421 237.076563 250.376994 236.58206 251.230057 234.131045 C 252.08312 231.687196 251.00783 227.301169 248.850082 225.072322 C 246.692334 222.850642 243.430622 222.778975 240.140236 222.843475 C 236.849849 222.900809 233.530789 223.087143 230.649012 222.872142 C 227.767236 222.649974 225.322744 222.019303 225.286901 222.341805 C 225.258227 222.649974 227.638201 223.911315 230.491303 224.219484 C 233.337236 224.527652 236.663466 223.911315 239.079283 221.560634 C 241.487932 219.209953 243.000506 215.139261 243.251407 210.781901 C 243.502308 206.417374 242.498705 201.787678 240.842758 199.809666 C 239.179644 197.838821 236.857018 198.526825 235.258421 199.780999 C 233.659823 201.028007 232.778086 202.848352 231.251174 203.378688 C 229.709926 203.909025 227.523504 203.15652 226.993027 201.687344 C 226.462551 200.218169 227.588021 198.017988 229.150775 196.957315 C 230.720698 195.889475 232.720737 195.961142 232.218935 194.800135 C 231.717133 193.639128 228.713491 191.25978 225.451779 190.292274 C 222.190067 189.317601 218.677454 189.761937 216.297479 191.453281 C 213.917505 193.137458 212.670169 196.090143 212.347582 199.100162 C 212.039332 202.11018 212.663 205.177533 213.817144 207.119711 C 214.978457 209.06189 216.670246 209.878895 216.727595 208.782388 C 216.792112 207.678715 215.229358 204.668696 213.817144 201.852179 C 212.412099 199.028495 211.157595 196.398312 209.308096 194.5493 C 207.458598 192.700289 205.021275 191.639616 203.171776 191.861784 C 201.322278 192.076785 200.067774 193.581794 199.379588 195.710307 C 198.691403 197.838821 198.569537 200.598004 197.967374 202.791018 C 197.372381 204.976865 196.311428 206.610875 194.519279 207.42788 C 192.727129 208.237718 190.232457 208.237718 188.691209 209.14789 C 187.14996 210.058063 186.59081 211.878407 186.59081 213.849253 C 186.59081 215.820098 187.14996 217.962945 189.816679 219.152619 C 192.483397 220.342293 197.250515 220.593128 200.626924 221.252465 C 204.010502 221.911803 206.01771 222.972476 206.799087 224.291151 C 207.580464 225.609825 207.14318 227.172168 205.358199 226.770833 C 203.573218 226.36233 200.440541 223.982982 197.178829 222.50664 C 193.917117 221.037464 190.540707 220.471294 188.497657 222.477973 C 186.461775 224.491819 185.766421 229.057013 186.339909 232.697703 C 186.899059 236.338392 188.719883 239.033075 191.350759 240.93942 C 193.981634 242.852932 197.42973 243.978106 199.336577 245.447281 C 201.250592 246.916457 201.630528 248.736802 202.906538 250.02681 C 204.189717 251.309651 206.390477 252.069322 208.433527 252.191156 C 210.469409 252.320157 212.347582 251.811321 213.602086 250.750647 C 214.849422 249.682808 215.480259 248.063131 216.111096 246.429121 " stroke="#000000" stroke-width="1.78" stroke-opacity="1" stroke-miterlimit="22.926001"/><path stroke-linecap="butt" transform="matrix(0.544911, 0, 0, 0.545055, 90.449559, 0.38185)" fill="none" stroke-linejoin="miter" d="M 211.910297 219.940957 C 210.906694 221.789969 210.41206 224.420151 211.408495 226.36233 C 212.412099 228.297342 214.921108 229.558683 217.272409 229.092847 C 219.61654 228.619844 221.810131 226.426831 222.412293 224.197983 C 223.007287 221.969136 221.996515 219.718789 220.663155 218.342781 C 219.30829 216.959605 217.616501 216.457936 216.017904 216.737437 C 214.419307 217.016939 212.92107 218.091946 211.910297 219.940957 Z M 211.910297 219.940957 " stroke="#000000" stroke-width="1.78" stroke-opacity="1" stroke-miterlimit="22.926001"/><path stroke-linecap="butt" transform="matrix(0.544911, 0, 0, 0.545055, 90.449559, 0.38185)" fill="none" stroke-linejoin="miter" d="M 203.006899 258.318694 C 201.630528 260.769709 200.870657 263.851395 201.630528 266.789747 C 202.383231 269.742431 204.641339 272.558949 207.021314 273.748623 C 209.401288 274.938297 211.910297 274.501128 212.412099 272.809784 C 212.906732 271.11844 211.408495 268.172922 209.752549 266.352577 C 208.089435 264.532233 206.268611 263.837062 205.831326 264.467732 C 205.386873 265.098403 206.333128 267.040581 207.9604 268.41659 C 209.587672 269.799765 211.910297 270.609603 213.759796 270.107934 C 215.609294 269.613431 216.992833 267.793086 217.329757 265.571406 C 217.681019 263.349725 216.992833 260.712376 215.286707 259.1787 C 213.602086 257.637857 210.899525 257.207854 209.272253 257.358355 C 207.637813 257.523189 207.078662 258.268527 208.239975 258.956531 C 209.401288 259.651702 212.283064 260.282373 214.541173 259.80937 C 216.799281 259.343534 218.426553 257.766857 218.856669 256.269015 C 219.301122 254.771172 218.548419 253.323497 216.612898 252.656993 C 214.670208 251.990488 211.551867 252.097989 208.978341 253.072662 C 206.411983 254.040168 204.390438 255.882012 203.006899 258.333028 Z M 203.006899 258.318694 " stroke="#000000" stroke-width="1.78" stroke-opacity="1" stroke-miterlimit="22.926001"/><path stroke-linecap="butt" transform="matrix(0.544911, 0, 0, 0.545055, 90.449559, 0.38185)" fill="none" stroke-linejoin="miter" d="M 173.271555 253.8825 C 174.432868 253.939834 176.00279 252.807494 175.931104 252.628326 C 175.866587 252.441991 174.181967 253.187329 173.171194 255.480677 C 172.167591 257.766857 171.852172 261.586714 173.257217 263.851395 C 174.669431 266.108909 177.802109 266.796913 180.031542 265.478238 C 182.260976 264.159564 183.57283 260.841376 183.630179 258.841864 C 183.687527 256.828018 182.49754 256.140014 181.909715 257.401355 C 181.307553 258.648363 181.307553 261.851883 182.662418 263.700894 C 184.010114 265.549906 186.698339 266.051575 188.798738 265.456738 C 190.899137 264.861901 192.397374 263.170558 193.092728 260.92021 C 193.780913 258.662696 193.651878 255.839012 192.533577 254.061668 C 191.400939 252.26999 189.271865 251.517486 188.770063 251.739654 C 188.268261 251.961822 189.4009 253.151496 190.870462 253.810833 C 192.340025 254.47017 194.160849 254.592005 195.099935 253.180162 C 196.039022 251.76832 196.103539 248.822802 195.32933 246.529455 C 194.56229 244.243274 192.949356 242.602097 190.719922 242.222261 C 188.497657 241.842426 185.651723 242.731098 184.891852 243.648437 C 184.13198 244.558609 185.436665 245.497448 186.863216 245.060279 C 188.282599 244.62311 189.80951 242.788432 190.010231 241.269089 C 190.210951 239.756913 189.09265 238.560072 186.576472 238.122903 C 184.060294 237.6929 180.153409 238.022569 178.160538 239.21941 C 176.167668 240.423417 176.110319 242.48743 177.020731 244.279107 C 177.931143 246.070785 179.809316 247.568628 180.117566 247.482627 C 180.432984 247.38946 179.178479 245.69095 177.830783 245.18928 C 176.483087 244.68761 175.042198 245.382781 173.823537 246.601122 C 172.597706 247.819463 171.586934 249.582474 171.472237 251.080316 C 171.343202 252.578159 172.103073 253.8395 173.257217 253.896834 Z M 173.271555 253.8825 " stroke="#000000" stroke-width="1.78" stroke-opacity="1" stroke-miterlimit="22.926001"/><path stroke-linecap="butt" transform="matrix(0.544911, 0, 0, 0.545055, 90.449559, 0.38185)" fill="none" stroke-linejoin="miter" d="M 203.006899 258.318694 C 201.300772 257.989026 199.580309 257.659357 197.9387 256.978519 C 196.297091 256.297682 194.72 255.280009 193.150077 254.248002 " stroke="#000000" stroke-width="1.78" stroke-opacity="1" stroke-miterlimit="22.926001"/><path stroke-linecap="butt" transform="matrix(0.544911, 0, 0, 0.545055, 90.449559, 0.38185)" fill="none" stroke-linejoin="miter" d="M 171.809161 252.85766 C 169.472198 255.40901 167.120898 257.960359 165.070679 261.472047 C 163.02046 264.969402 161.271322 269.419929 160.51145 274.966964 C 159.758748 280.521165 160.009649 287.157539 160.231875 289.128385 C 160.446933 291.09923 160.640485 288.411713 162.360949 285.588029 C 164.081412 282.771512 167.343124 279.818827 169.966831 277.253145 C 172.597706 274.680295 174.612082 272.487282 175.558337 270.666937 C 176.511761 268.860926 176.418569 267.420417 176.318209 265.987075 " stroke="#000000" stroke-width="1.78" stroke-opacity="1" stroke-miterlimit="22.926001"/><path stroke-linecap="butt" transform="matrix(0.544911, 0, 0, 0.545055, 90.449559, 0.38185)" fill="none" stroke-linejoin="miter" d="M 261.02953 234.267212 C 260.907664 211.80674 260.792966 189.353435 260.792966 171.293323 C 260.792966 153.233212 260.922001 139.573461 259.846711 132.607418 C 258.77859 125.648541 256.527651 125.397706 239.60976 124.530534 C 222.691869 123.649029 191.099858 122.151186 164.016895 121.649517 C 150.181501 121.391515 137.50742 121.398682 126.747354 121.527682 M 110.861741 121.821518 C 107.420814 121.907518 104.359823 122.000685 101.728948 122.086686 C 89.327273 122.516689 86.43116 122.889358 85.198161 129.210397 M 84.603167 162.557103 C 84.63901 164.298613 84.667685 166.090291 84.710696 167.932136 C 85.018946 183.290397 85.327196 202.439849 85.628277 222.219971 M 85.742974 229.293515 C 85.771649 231.056526 85.793155 232.841037 85.821829 234.618381 " stroke="#000000" stroke-width="1.78" stroke-opacity="1" stroke-miterlimit="22.926001"/><path stroke-linecap="butt" transform="matrix(0.544911, 0, 0, 0.545055, 90.449559, 0.38185)" fill="none" stroke-linejoin="miter" d="M 210.648624 186.780586 C 210.956874 185.927747 212.97125 185.433244 214.541173 185.870413 C 216.111096 186.307583 217.236566 187.690758 218.827994 187.497257 C 220.426592 187.310922 222.498316 185.562245 223.81017 183.648733 C 225.129192 181.742388 225.688342 179.671208 225.380093 177.263193 C 225.071843 174.848012 223.881856 172.088828 224.21878 170.368818 C 224.570041 168.648807 226.448214 167.960803 226.512731 167.330132 C 226.57008 166.699462 224.820942 166.140458 223.659629 163.538942 C 222.498316 160.937426 221.939166 156.300564 220.240208 154.301052 C 218.548419 152.287206 215.73116 152.917876 213.2795 154.487386 C 210.842176 156.056896 208.770451 158.558078 206.727401 161.417596 C 204.691519 164.269947 202.69148 167.473466 202.971056 168.498306 C 203.250631 169.530312 205.816989 168.412305 207.609139 166.677961 C 209.401288 164.957951 210.397723 162.643103 210.648624 159.941253 C 210.899525 157.24657 210.397723 154.172051 207.609139 152.480707 C 204.820554 150.789363 199.738018 150.466861 196.082033 150.689029 C 192.411711 150.911197 190.160771 151.656535 189.121325 153.290545 C 188.089047 154.917389 188.268261 157.432904 188.899098 159.747752 C 189.529935 162.069766 190.590887 164.198279 190.282637 166.018624 C 189.967219 167.838969 188.268261 169.336811 186.827373 168.870975 C 185.386485 168.397972 184.196498 165.96129 184.13198 163.316774 C 184.067463 160.686591 185.128416 157.870074 184.468905 156.608733 C 183.809394 155.361725 181.429419 155.669893 178.361259 156.551399 C 175.293099 157.432904 171.529585 158.873413 169.242803 160.908759 C 166.948851 162.951272 166.1388 165.581455 166.948851 168.777808 C 167.77324 171.981328 170.217732 175.751017 172.597706 177.628696 C 174.977681 179.513541 177.300307 179.499207 177.608556 178.968871 C 177.916806 178.431367 176.232186 177.370694 173.852211 176.11652 C 171.472237 174.869512 168.396908 173.421836 165.257062 172.826999 C 162.131554 172.232162 158.92719 172.490164 156.611733 173.608171 C 154.289107 174.740511 152.848219 176.740024 152.410935 179.492041 C 151.966482 182.229724 152.53997 185.712746 154.568683 187.339589 C 156.611733 188.973599 160.117178 188.751431 161.988182 189.489602 C 163.873523 190.227774 164.117255 191.919117 164.812609 193.330959 C 165.500795 194.742801 166.633433 195.867975 168.382571 196.340978 C 170.131709 196.806814 172.518852 196.62048 174.798466 195.710307 C 177.092417 194.800135 179.27884 193.173292 181.099664 191.130779 C 182.920487 189.088267 184.361376 186.651585 185.766421 185.612412 C 187.178635 184.580405 188.562174 184.953074 188.870424 186.142748 C 189.178673 187.332422 188.433139 189.339101 186.139188 190.901444 C 183.852405 192.470954 180.031542 193.603294 177.959818 195.00797 C 175.888093 196.419812 175.579843 198.111156 176.827179 199.178996 C 178.081684 200.246835 180.898943 200.676838 183.536987 200.397336 C 186.167862 200.117835 188.619523 199.121662 190.590887 198.992661 C 192.562252 198.856494 194.067657 199.623332 195.816795 199.30083 C 197.573102 198.992661 199.580309 197.609486 201.859923 196.64198 C 204.139537 195.667307 206.698727 195.122637 208.612742 194.090631 C 210.519589 193.058624 211.788431 191.539282 211.731082 190.19194 C 211.666565 188.837432 210.290194 187.647758 210.612781 186.802086 Z M 210.648624 186.780586 " stroke="#000000" stroke-width="1.78" stroke-opacity="1" stroke-miterlimit="22.926001"/><path stroke-linecap="butt" transform="matrix(0.544911, 0, 0, 0.545055, 90.449559, 0.38185)" fill="none" stroke-linejoin="miter" d="M 153.780137 175.987519 C 154.733561 175.192014 155.679815 174.389342 157.29275 175.321015 C 158.898516 176.252687 161.17813 178.897204 162.081373 181.548887 C 162.977448 184.20057 162.497152 186.830753 163.780331 188.708431 C 165.06351 190.593276 168.110164 191.711283 170.827063 192.048118 C 173.55113 192.39212 175.931104 191.947784 177.959818 191.188113 C 180.002868 190.428441 181.687489 189.353435 183.379278 188.271261 " stroke="#000000" stroke-width="1.78" stroke-opacity="1" stroke-miterlimit="22.926001"/><path stroke-linecap="butt" transform="matrix(0.544911, 0, 0, 0.545055, 90.449559, 0.38185)" fill="none" stroke-linejoin="miter" d="M 190.662573 182.15089 C 192.598095 182.179557 195.422522 182.057723 197.372381 180.932549 C 199.307902 179.800209 200.383192 177.671696 199.752355 175.507349 C 199.121519 173.350169 196.798893 171.149989 194.36157 170.619652 C 191.917078 170.089316 189.35072 171.221656 188.031698 173.350169 C 186.712676 175.478682 186.648158 178.610535 187.14996 180.280379 C 187.651762 181.943056 188.719883 182.12939 190.662573 182.158057 Z M 190.662573 182.15089 " stroke="#000000" stroke-width="1.78" stroke-opacity="1" stroke-miterlimit="22.926001"/><path stroke-linecap="butt" transform="matrix(0.544911, 0, 0, 0.545055, 90.449559, 0.38185)" fill="none" stroke-linejoin="miter" d="M 212.440774 185.777246 C 214.598522 185.497744 216.770607 185.211076 218.13264 184.100236 C 219.487505 182.989396 220.060993 181.04005 219.903284 179.011871 C 219.738406 176.969358 218.871006 174.840845 218.871006 173.278502 C 218.871006 171.708992 219.752743 170.71282 220.949899 170.039149 C 222.147055 169.372645 223.666798 169.042976 225.186541 168.713307 " stroke="#000000" stroke-width="1.78" stroke-opacity="1" stroke-miterlimit="22.926001"/><path stroke-linecap="butt" transform="matrix(0.544911, 0, 0, 0.545055, 90.449559, 0.38185)" fill="none" stroke-linejoin="miter" d="M 175.680204 239.649412 C 174.561902 236.732561 173.45077 233.801376 173.508118 230.640857 C 173.572636 227.480337 174.819972 224.068983 176.217848 221.238132 C 177.622894 218.407281 179.192817 216.149767 180.103228 213.268749 C 181.006472 210.387731 181.257373 206.88321 181.637308 206.632375 C 182.017244 206.38154 182.519046 209.391559 183.429458 213.010748 C 184.33987 216.629937 185.651723 220.851129 185.809432 224.606486 C 185.967142 228.369009 184.970706 231.65853 183.228737 234.40338 C 181.486768 237.12673 179.006433 239.298243 177.630062 240.086582 C 176.246523 240.867753 175.966947 240.272916 175.687372 239.656579 Z M 175.680204 239.649412 " stroke="#000000" stroke-width="1.78" stroke-opacity="1" stroke-miterlimit="22.926001"/><g clip-path="url(#4d9cb78d8d)"><path stroke-linecap="butt" transform="matrix(0.544911, 0, 0, 0.545055, 90.449559, 0.38185)" fill="none" stroke-linejoin="miter" d="M 236.720815 241.369423 C 241.186851 242.738265 245.667225 244.107106 250.59922 248.930303 C 255.531216 253.753499 260.922001 262.016717 265.782311 268.172922 C 270.64262 274.307626 274.958116 278.320984 279.287949 280.987001 C 283.610613 283.653017 287.940447 284.971692 291.417217 285.63103 C 294.901155 286.290367 297.532031 286.290367 300.162906 286.290367 " stroke="#000000" stroke-width="1.78" stroke-opacity="1" stroke-miterlimit="22.926001"/></g><g clip-path="url(#4079b7a355)"><path stroke-linecap="butt" transform="matrix(0.544911, 0, 0, 0.545055, 90.449559, 0.38185)" fill="none" stroke-linejoin="miter" d="M 295.718375 286.082532 C 296.542764 284.950192 299.403035 283.918186 302.80095 284.032853 C 306.198865 284.140354 310.141594 285.401695 313.63987 286.440868 C 317.138146 287.480041 320.220643 288.289879 321.338944 288.727049 C 322.471583 289.171385 321.647194 289.228719 319.267219 289.802055 C 316.887245 290.361059 312.937347 291.428899 309.023293 291.493399 C 305.10207 291.550733 301.21669 290.611894 298.671838 289.52972 C 296.119817 288.447547 294.901155 287.222039 295.718375 286.089699 Z M 295.718375 286.082532 " stroke="#000000" stroke-width="1.78" stroke-opacity="1" stroke-miterlimit="22.926001"/></g><path stroke-linecap="butt" transform="matrix(0.544911, 0, 0, 0.545055, 90.449559, 0.38185)" fill="none" stroke-linejoin="miter" d="M 252.979195 249.102304 C 254.262374 248.600634 257.932696 248.256632 261.588681 248.349799 C 265.237497 248.428633 268.879145 248.930303 272.291397 249.912142 C 275.710819 250.879648 278.900845 252.320157 278.649944 253.172996 C 278.399043 254.018668 274.700046 254.269503 271.603212 254.670838 C 268.499209 255.079341 265.9902 255.638344 263.137098 255.050674 C 260.291165 254.44867 257.086801 252.699993 254.94339 251.488819 C 252.792811 250.277645 251.688847 249.61114 252.979195 249.109471 Z M 252.979195 249.102304 " stroke="#000000" stroke-width="1.78" stroke-opacity="1" stroke-miterlimit="22.926001"/><path stroke-linecap="butt" transform="matrix(0.544911, 0, 0, 0.545055, 90.449559, 0.38185)" fill="none" stroke-linejoin="miter" d="M 267.137176 271.949778 C 268.592401 272.279447 271.058399 274.450961 272.191037 277.138477 C 273.316507 279.840327 273.108618 283.05818 272.592479 285.953532 C 272.083508 288.848883 271.259119 291.421732 270.348707 291.758567 C 269.438295 292.10257 268.44186 290.217725 267.588797 287.781043 C 266.742903 285.337194 266.047549 282.327176 265.617433 280.040995 C 265.180148 277.747648 264.986596 276.192471 265.122799 274.651628 C 265.251834 273.110786 265.68195 271.612943 267.137176 271.942612 Z M 267.137176 271.949778 " stroke="#000000" stroke-width="1.78" stroke-opacity="1" stroke-miterlimit="22.926001"/><path stroke-linecap="butt" transform="matrix(0.544911, 0, 0, 0.545055, 90.449559, 0.38185)" fill="none" stroke-linejoin="miter" d="M 197.12148 110.476614 C 200.003256 110.168446 202.892201 109.85311 204.612665 108.190433 C 206.333128 106.527756 206.899447 103.517738 205.358199 101.13839 C 203.81695 98.759042 200.18964 97.003198 197.279189 97.246866 C 194.368738 97.497701 192.167979 99.762381 191.859729 102.199063 C 191.551479 104.642911 193.107065 107.280261 194.297052 108.692103 C 195.48704 110.096779 196.311428 110.29028 197.12148 110.476614 Z M 197.12148 110.476614 " stroke="#000000" stroke-width="1.78" stroke-opacity="1" stroke-miterlimit="22.926001"/><path stroke-linecap="butt" transform="matrix(0.544911, 0, 0, 0.545055, 90.449559, 0.38185)" fill="none" stroke-linejoin="miter" d="M 192.899176 116.747486 C 191.608828 119.048 190.31848 121.341348 186.418763 121.800017 C 182.519046 122.258687 176.00279 120.882678 173.328903 118.969167 C 170.669354 117.062822 171.859341 114.611806 172.260782 112.949129 C 172.669392 111.286453 172.289457 110.412114 171.192661 108.190433 C 170.088697 105.968753 168.282211 102.392564 168.016972 99.540213 C 167.77324 96.687862 169.092262 94.559349 170.812726 93.341008 C 172.533189 92.122667 174.662263 91.800165 175.888093 92.617171 C 177.106755 93.427009 177.429341 95.383521 177.020731 97.447534 C 176.612121 99.518713 175.479483 101.711727 175.106716 103.718406 C 174.72678 105.732252 175.106716 107.538263 175.80207 109.32994 C 176.490255 111.121618 177.48669 112.870296 177.809277 114.633307 C 178.117527 116.381984 177.751928 118.137828 179.529741 118.990667 C 181.32189 119.843505 185.25745 119.771838 188.368622 118.488997 C 191.472625 117.213322 193.730733 114.697807 194.261209 113.09963 C 194.791686 111.501454 193.601698 110.81345 193.071222 112.519127 C 192.540746 114.231971 192.662612 118.35283 194.168018 120.818178 C 195.673423 123.29786 198.562368 124.129199 201.436976 124.079032 C 204.318752 124.028865 207.207697 123.090025 208.490876 121.327015 C 209.766887 119.578337 209.458637 117.012655 210.283026 116.030815 C 211.093077 115.063309 213.042936 115.686813 215.329719 115.342811 C 217.616501 114.998809 220.247377 113.680134 222.469642 110.29028 C 224.699076 106.907592 226.512731 101.446558 226.476888 98.157038 C 226.448214 94.867518 224.570041 93.742344 222.591508 93.269341 C 220.620144 92.803505 218.548419 92.989839 216.670246 94.373015 C 214.792074 95.749023 213.100285 98.321872 211.408495 99.232045 C 209.716706 100.142217 208.032086 99.389712 208.311661 97.84887 C 208.591236 96.308027 210.849345 94.000346 213.042936 92.896672 C 215.229358 91.800165 217.358432 91.929166 219.236604 91.212495 C 221.121946 90.488657 222.749217 88.919148 222.720543 86.511133 C 222.691869 84.103118 221.000079 80.842264 218.111134 79.179588 C 215.229358 77.516911 211.150426 77.459577 208.333167 77.896746 C 205.508739 78.341082 203.938816 79.279921 201.910103 79.00042 C 199.867053 78.720918 197.372381 77.208742 194.841866 77.051074 C 192.318519 76.893407 189.780836 78.068747 188.210913 80.333428 C 186.64099 82.590942 186.053165 85.923463 187.056768 88.646813 C 188.081878 91.37733 190.712753 93.513009 193.33646 95.641523 " stroke="#000000" stroke-width="1.78" stroke-opacity="1" stroke-miterlimit="22.926001"/><path stroke-linecap="butt" transform="matrix(0.544911, 0, 0, 0.545055, 90.449559, 0.38185)" fill="none" stroke-linejoin="miter" d="M 192.440385 94.881851 C 192.311351 93.312341 192.167979 91.742832 191.472625 89.313317 C 190.770102 86.876635 189.486923 83.601448 186.827373 81.752437 C 184.167823 79.903425 180.110397 79.487756 177.149766 80.096927 C 174.181967 80.713264 172.296625 82.340107 171.171155 84.38262 C 170.038517 86.417966 169.672919 88.861814 169.3575 90.882826 C 169.04925 92.896672 168.819855 94.480515 168.583292 96.071525 " stroke="#000000" stroke-width="1.78" stroke-opacity="1" stroke-miterlimit="22.926001"/><path stroke-linecap="butt" transform="matrix(0.544911, 0, 0, 0.545055, 90.449559, 0.38185)" fill="none" stroke-linejoin="miter" d="M 252.398538 63.470157 C 250.326813 63.219322 248.262257 62.968487 246.921729 60.990475 C 245.566864 59.01963 244.950365 55.321607 245.731742 53.121427 C 246.513119 50.928413 248.70671 50.240409 250.398499 51.45875 C 252.090289 52.67709 253.280276 55.823277 253.187084 57.45012 C 253.101061 59.076963 251.717521 59.198797 251.122528 57.392786 C 250.520366 55.572442 250.706749 51.809918 252.721125 49.903573 C 254.728333 47.990061 258.549195 47.932728 261.180071 48.549065 C 263.810946 49.179736 265.251834 50.491244 265.251834 52.662757 C 265.251834 54.819937 263.810946 57.829956 262.900534 58.611127 C 261.990122 59.392299 261.617355 57.95179 262.957883 57.199285 C 264.312748 56.44678 267.380908 56.389447 269.889917 56.977117 C 272.398926 57.579121 274.341616 58.833295 274.42764 60.460139 C 274.520831 62.086982 272.771693 64.100828 270.699969 65.290502 C 268.628244 66.480176 266.248269 66.860011 264.312748 66.286675 C 262.370058 65.727671 260.857484 64.222662 261.681873 64.100828 C 262.491924 63.971827 265.63177 65.233168 267.323559 66.953179 C 269.00818 68.673189 269.25908 70.87337 268.319994 72.177711 C 267.380908 73.503552 265.251834 73.933555 263.0224 72.930216 C 260.800135 71.926876 258.477509 69.483028 256.692528 67.66985 C 254.900379 65.849505 253.653043 64.659831 252.398538 63.470157 Z M 252.398538 63.470157 " stroke="#000000" stroke-width="1.78" stroke-opacity="1" stroke-miterlimit="22.926001"/><path stroke-linecap="butt" transform="matrix(0.544911, 0, 0, 0.545055, 90.449559, 0.38185)" fill="none" stroke-linejoin="miter" d="M 253.15841 64.186828 C 249.581279 66.021506 246.011318 67.841851 243.222733 70.171032 C 240.42698 72.493046 238.419772 75.309564 236.419734 78.133248 " stroke="#000000" stroke-width="1.78" stroke-opacity="1" stroke-miterlimit="22.926001"/><path stroke-linecap="butt" transform="matrix(0.544911, 0, 0, 0.545055, 90.449559, 0.38185)" fill="none" stroke-linejoin="miter" d="M 231.337198 90.553158 C 230.527146 88.109309 229.709926 85.658294 229.681251 83.909617 C 229.652577 82.160939 230.398111 81.093099 231.652616 80.240261 C 232.899952 79.387422 234.663427 78.771085 236.039798 79.172421 C 237.423337 79.580923 238.419772 81.021432 238.577481 82.648276 C 238.742359 84.282286 238.047005 86.10263 237.760261 86.410799 C 237.480686 86.718967 237.602552 85.529293 238.921574 84.396953 C 240.240596 83.271779 242.742437 82.211106 244.591935 81.988938 C 246.441433 81.76677 247.631421 82.397441 247.968345 83.737616 C 248.312437 85.092124 247.810636 87.163304 247.308834 89.22015 " stroke="#000000" stroke-width="1.78" stroke-opacity="1" stroke-miterlimit="22.926001"/><path stroke-linecap="butt" transform="matrix(0.544911, 0, 0, 0.545055, 90.449559, 0.38185)" fill="none" stroke-linejoin="miter" d="M 231.337198 90.553158 C 229.459025 87.729474 227.580852 84.912956 226.613092 82.117939 C 225.638162 79.330088 225.580814 76.570905 226.613092 74.628726 C 227.638201 72.686547 229.781612 71.561374 231.588099 72.278045 C 233.408922 73.001883 234.907159 75.567565 235.659862 76.857573 C 236.412565 78.140414 236.412565 78.140414 237.91797 77.459577 C 239.423376 76.771573 242.427019 75.388397 244.591935 75.022895 C 246.749683 74.643059 248.068705 75.266563 248.269426 76.642572 C 248.477315 78.011414 247.566903 80.11126 248.477315 80.827931 C 249.387727 81.551769 252.111794 80.892431 253.731897 81.207767 C 255.337663 81.537435 255.839465 82.848944 255.373506 84.583288 C 254.900379 86.303298 253.459491 88.431811 251.767702 89.628652 C 250.083081 90.818326 248.140391 91.069161 246.190532 91.319996 " stroke="#000000" stroke-width="1.78" stroke-opacity="1" stroke-miterlimit="22.926001"/><path stroke-linecap="butt" transform="matrix(0.544911, 0, 0, 0.545055, 90.449559, 0.38185)" fill="none" stroke-linejoin="miter" d="M 219.838767 70.228366 C 219.430157 69.010025 220.211534 66.802678 221.91766 64.666998 C 223.630955 62.531318 226.26183 60.467305 229.107764 58.768795 C 231.960866 57.077451 235.029026 55.758776 238.262063 53.65893 C 241.487932 51.559084 244.87151 48.678066 245.99698 48.111896 C 247.129619 47.552892 245.99698 49.30157 244.778319 52.08942 C 243.559657 54.877271 242.240635 58.697128 239.767469 61.621146 C 237.287134 64.53083 233.659823 66.537509 230.742204 68.107019 C 227.831753 69.676529 225.630994 70.808869 223.738484 71.253205 C 221.838805 71.690375 220.247377 71.446706 219.838767 70.228366 Z M 219.838767 70.228366 " stroke="#000000" stroke-width="1.78" stroke-opacity="1" stroke-miterlimit="22.926001"/><path stroke-linecap="butt" transform="matrix(0.544911, 0, 0, 0.545055, 90.449559, 0.38185)" fill="none" stroke-linejoin="miter" d="M 226.62026 109.817277 C 227.781573 109.881777 229.351496 108.749437 229.27981 108.570269 C 229.222461 108.376768 227.530672 109.129273 226.5199 111.42262 C 225.523465 113.708801 225.200878 117.528658 226.613092 119.793338 C 228.018137 122.050852 231.150814 122.738857 233.380248 121.420182 C 235.609682 120.101507 236.921535 116.78332 236.978884 114.776641 C 237.043402 112.769962 235.853414 112.081957 235.258421 113.343299 C 234.663427 114.590306 234.663427 117.786659 236.011123 119.642837 C 237.35882 121.491849 240.047044 121.993519 242.147443 121.398682 C 244.247842 120.796678 245.753248 119.112501 246.441433 116.862154 C 247.129619 114.597473 247.000584 111.780956 245.882283 109.996445 C 244.749644 108.211934 242.620571 107.459429 242.118769 107.681597 C 241.616967 107.896598 242.749605 109.093439 244.219168 109.752776 C 245.688731 110.412114 247.509554 110.526781 248.448641 109.122106 C 249.387727 107.710264 249.452244 104.757579 248.678036 102.471398 C 247.910996 100.178051 246.298061 98.536874 244.068627 98.157038 C 241.853531 97.777202 239.000429 98.673041 238.240557 99.59038 C 237.480686 100.500553 238.792539 101.439392 240.211922 101.002222 C 241.631304 100.557886 243.158216 98.730375 243.358936 97.211032 C 243.559657 95.698856 242.441356 94.502016 239.932346 94.057679 C 237.409 93.627677 233.502114 93.957345 231.509244 95.161353 C 229.523542 96.358194 229.459025 98.429373 230.369437 100.221051 C 231.279849 102.012729 233.158021 103.510571 233.47344 103.417404 C 233.781689 103.331403 232.527185 101.632893 231.179488 101.131223 C 229.831792 100.629553 228.390904 101.317558 227.172242 102.543065 C 225.953581 103.761406 224.942808 105.51725 224.820942 107.02226 C 224.691907 108.520102 225.451779 109.781443 226.613092 109.838777 Z M 226.62026 109.817277 " stroke="#000000" stroke-width="1.78" stroke-opacity="1" stroke-miterlimit="22.926001"/><path stroke-linecap="butt" transform="matrix(0.544911, 0, 0, 0.545055, 90.449559, 0.38185)" fill="none" stroke-linejoin="miter" d="M 247.086607 111.917123 C 249.251524 109.652442 251.409272 107.387762 254.291048 106.08342 C 257.172824 104.771912 260.778629 104.42791 263.939981 104.478077 C 267.101333 104.528244 269.811063 104.97258 272.800368 104.549744 C 275.789673 104.126908 279.072891 102.851234 279.459995 103.080569 C 279.8471 103.309903 277.352428 105.058581 274.470651 107.437929 C 271.603212 109.817277 268.348669 112.820129 265.022439 114.58314 C 261.689041 116.338984 258.291126 116.84782 255.072425 116.460818 C 251.846556 116.066649 248.828576 114.762307 247.53106 113.859302 C 246.233544 112.949129 246.649323 112.440293 247.079439 111.931457 Z M 247.086607 111.917123 " stroke="#000000" stroke-width="1.78" stroke-opacity="1" stroke-miterlimit="22.926001"/><g fill="#000000" fill-opacity="1"><g transform="translate(77.007648, 319.286137)"><g><path d="M 51.261719 -11.992188 C 53.089844 -15.089844 54.28125 -14.335938 56.859375 -13.738281 C 59.957031 -12.546875 62.855469 -11.4375 65.476562 -10.484375 C 66.3125 -10.164062 66.867188 -9.488281 66.984375 -8.617188 C 67.660156 -3.734375 68.691406 -1.152344 70.28125 -0.636719 C 70.558594 -0.515625 70.835938 -0.554688 71.074219 -0.675781 C 71.3125 -0.792969 71.511719 -1.03125 71.59375 -1.269531 C 71.75 -1.828125 71.472656 -2.421875 70.917969 -2.621094 C 70.242188 -2.859375 69.726562 -4.445312 69.328125 -6.871094 C 69.210938 -7.386719 69.40625 -7.902344 69.804688 -8.21875 C 70.164062 -8.535156 70.71875 -8.65625 71.195312 -8.496094 C 73.894531 -7.503906 76.753906 -6.910156 79.652344 -6.75 C 79.890625 -6.75 80.167969 -6.871094 80.367188 -7.066406 C 80.566406 -7.265625 80.644531 -7.542969 80.644531 -7.824219 C 80.644531 -8.101562 80.527344 -8.378906 80.328125 -8.535156 C 80.128906 -8.734375 79.851562 -8.855469 79.574219 -8.855469 C 76.355469 -9.09375 73.21875 -9.847656 70.203125 -11.039062 C 69.328125 -11.316406 68.691406 -12.109375 68.613281 -13.023438 C 67.980469 -21.324219 67.898438 -32.480469 67.859375 -38.714844 C 67.820312 -47.410156 67.742188 -50.785156 67.34375 -51.738281 C 67.183594 -52.175781 66.789062 -52.453125 66.351562 -52.414062 C 65.875 -52.375 65.515625 -52.054688 65.398438 -51.621094 C 63.054688 -43.160156 60.15625 -34.863281 56.703125 -26.800781 C 55.550781 -24.179688 54.4375 -21.800781 53.285156 -19.574219 C 52.769531 -18.542969 51.5 -18.066406 50.429688 -18.464844 C 37.402344 -23.46875 22.515625 -28.828125 11.117188 -29.699219 C 6.710938 -30.019531 3.851562 -29.222656 2.621094 -27.359375 C 1.589844 -25.769531 1.785156 -23.664062 3.175781 -21.085938 C 7.542969 -13.101562 24.378906 -0.398438 36.171875 -0.398438 C 41.730469 -0.398438 46.855469 -5.28125 51.261719 -11.992188 Z M 9.171875 -27.675781 C 9.726562 -27.675781 10.324219 -27.675781 10.960938 -27.636719 C 21.800781 -26.800781 36.054688 -21.757812 48.679688 -16.914062 C 49.316406 -16.675781 49.832031 -16.121094 50.03125 -15.484375 C 50.269531 -14.8125 50.148438 -14.097656 49.792969 -13.5 C 45.148438 -6.234375 40.539062 -2.5 36.171875 -2.5 C 26.007812 -2.5 9.488281 -13.859375 5.003906 -22.078125 C 4.328125 -23.347656 3.652344 -25.09375 4.367188 -26.207031 C 4.964844 -27.160156 6.671875 -27.675781 9.171875 -27.675781 Z M 64.960938 -42.921875 C 65.238281 -43.757812 65.753906 -43.597656 65.753906 -42.683594 C 65.753906 -41.414062 65.753906 -40.066406 65.792969 -38.714844 C 65.835938 -28.945312 65.992188 -21.164062 66.351562 -15.246094 C 66.429688 -14.574219 66.113281 -13.976562 65.597656 -13.578125 C 65.078125 -13.183594 64.40625 -13.101562 63.808594 -13.339844 C 61.308594 -14.292969 58.609375 -15.328125 55.828125 -16.398438 L 54.28125 -16.996094 C 58.609375 -25.292969 62.179688 -33.988281 64.960938 -42.921875 Z M 64.960938 -42.921875 "/></g></g></g><g fill="#000000" fill-opacity="1"><g transform="translate(159.751917, 319.286137)"><g><path d="M 27.238281 -11 C 27.039062 -11.199219 26.800781 -11.277344 26.523438 -11.277344 C 26.246094 -11.277344 25.96875 -11.199219 25.769531 -11 C 21.957031 -7.386719 17.273438 -4.84375 12.148438 -3.613281 C 11.953125 -3.535156 11.714844 -3.613281 11.59375 -3.773438 C 11.476562 -3.972656 11.4375 -4.167969 11.554688 -4.367188 C 12.269531 -5.757812 12.109375 -7.425781 11.199219 -8.695312 C 10.640625 -9.449219 9.925781 -10.085938 9.09375 -10.5625 C 7.980469 -11.316406 6.75 -12.191406 6.710938 -13.101562 C 6.75 -13.621094 6.949219 -14.097656 7.304688 -14.492188 L 9.449219 -16.519531 C 9.847656 -16.914062 9.886719 -17.550781 9.53125 -17.949219 C 9.171875 -18.382812 8.578125 -18.464844 8.101562 -18.105469 C 7.265625 -17.472656 6.472656 -16.757812 5.796875 -15.921875 L -0.316406 -10.203125 C -0.59375 -9.964844 -0.714844 -9.570312 -0.636719 -9.210938 C -0.554688 -8.816406 -0.277344 -8.535156 0.078125 -8.417969 C 0.4375 -8.339844 0.832031 -8.417969 1.113281 -8.695312 L 4.128906 -11.515625 C 4.289062 -11.675781 4.488281 -11.714844 4.683594 -11.714844 C 4.882812 -11.675781 5.042969 -11.554688 5.121094 -11.394531 C 5.875 -10.363281 6.828125 -9.488281 7.902344 -8.855469 C 8.496094 -8.496094 9.011719 -8.101562 9.449219 -7.585938 C 9.847656 -7.148438 10.046875 -6.550781 9.925781 -5.957031 C 9.808594 -5.359375 9.449219 -4.84375 8.933594 -4.566406 C 6.394531 -3.136719 3.175781 -3.8125 1.429688 -6.15625 C 1.152344 -6.589844 0.515625 -6.75 0.0390625 -6.433594 C -0.4375 -6.15625 -0.59375 -5.558594 -0.316406 -5.042969 C 0.992188 -2.78125 3.335938 -1.308594 5.957031 -1.113281 C 6.632812 -0.992188 7.265625 -0.953125 7.941406 -0.953125 C 14.652344 -0.953125 22.910156 -5.160156 27.238281 -9.53125 C 27.636719 -9.925781 27.636719 -10.601562 27.238281 -11 Z M 27.238281 -11 "/></g></g></g><g fill="#000000" fill-opacity="1"><g transform="translate(185.401044, 319.286137)"><g><path d="M 31.328125 -9.488281 C 30.933594 -9.925781 30.296875 -9.964844 29.859375 -9.570312 C 29.78125 -9.53125 21.601562 -2.382812 15.605469 -3.335938 C 13.816406 -3.613281 12.269531 -4.683594 11.394531 -6.273438 C 10.640625 -7.664062 9.25 -8.535156 7.703125 -8.695312 C 5.757812 -8.816406 3.613281 -7.664062 1.351562 -5.28125 C 1.230469 -5.160156 1.03125 -5.121094 0.875 -5.203125 C 0.714844 -5.28125 0.636719 -5.441406 0.675781 -5.636719 C 0.792969 -6.394531 1.152344 -8.296875 1.308594 -9.011719 C 1.308594 -8.894531 1.589844 -9.449219 1.589844 -9.488281 C 4.964844 -14.097656 15.050781 -28.707031 11.117188 -33.394531 C 10.601562 -34.109375 9.648438 -34.425781 8.773438 -34.1875 C 7.980469 -33.949219 5.558594 -33.195312 1.828125 -19.933594 C 0.914062 -16.714844 0.078125 -13.261719 -0.59375 -10.007812 L -0.875 -9.648438 C -1.152344 -9.292969 -1.152344 -8.816406 -0.914062 -8.417969 C -1.507812 -5.480469 -1.90625 -2.78125 -2.105469 -0.714844 C -2.144531 -0.238281 -1.867188 0.199219 -1.429688 0.355469 C -0.992188 0.515625 -0.476562 0.355469 -0.199219 -0.0390625 C 3.851562 -5.917969 6.433594 -6.671875 7.585938 -6.632812 C 8.417969 -6.550781 9.171875 -6.035156 9.570312 -5.28125 C 10.761719 -3.136719 12.863281 -1.628906 15.328125 -1.269531 C 22.234375 -0.199219 30.851562 -7.703125 31.25 -8.019531 C 31.648438 -8.417969 31.6875 -9.054688 31.328125 -9.488281 Z M 9.371094 -32.203125 C 9.449219 -32.203125 9.488281 -32.082031 9.53125 -32.042969 C 11.4375 -29.898438 3.535156 -13.9375 2.542969 -14.574219 C 1.589844 -15.167969 7.703125 -32.203125 9.371094 -32.203125 Z M 9.371094 -32.203125 "/></g></g></g><g fill="#000000" fill-opacity="1"><g transform="translate(215.417668, 319.286137)"><g><path d="M 27.238281 -10.800781 C 26.84375 -11.199219 26.167969 -11.199219 25.769531 -10.761719 C 25.691406 -10.679688 14.929688 0.160156 7.78125 -2.542969 C 4.605469 -3.773438 3.257812 -7.464844 2.738281 -11.117188 C 3.453125 -12.863281 4.644531 -15.765625 5.757812 -19.019531 C 5.875 -19.417969 5.996094 -19.457031 6.472656 -19.496094 C 11.832031 -19.894531 17.152344 -20.089844 20.289062 -20.089844 C 20.886719 -20.089844 21.324219 -20.566406 21.324219 -21.125 C 21.324219 -21.71875 20.886719 -22.15625 20.289062 -22.15625 C 17.273438 -22.15625 12.308594 -21.917969 7.226562 -21.640625 C 7.027344 -21.601562 6.671875 -21.71875 6.949219 -22.433594 C 8.855469 -27.875 10.203125 -33.394531 9.371094 -35.0625 C 8.535156 -36.730469 7.425781 -36.769531 6.871094 -36.648438 C 3.929688 -36.09375 1.785156 -28.46875 0.832031 -22.234375 C 0.753906 -21.679688 0.476562 -21.203125 -0.0390625 -21.164062 C -6.273438 -20.6875 -11.394531 -20.328125 -11.476562 -20.328125 C -12.070312 -20.289062 -12.507812 -19.8125 -12.46875 -19.21875 C -12.46875 -18.664062 -11.992188 -18.1875 -11.394531 -18.226562 L -11.316406 -18.226562 C -11.199219 -18.226562 -6.394531 -18.582031 -0.398438 -19.019531 C -0.199219 -19.058594 0 -19.019531 0.160156 -18.859375 C 0.316406 -18.742188 0.4375 -18.542969 0.4375 -18.34375 C -0.160156 -8.894531 2.222656 -2.421875 7.027344 -0.59375 C 8.058594 -0.238281 9.132812 -0.0390625 10.246094 -0.0390625 C 18.105469 -0.0390625 26.84375 -8.894531 27.277344 -9.292969 C 27.476562 -9.488281 27.558594 -9.769531 27.558594 -10.046875 C 27.558594 -10.324219 27.4375 -10.601562 27.238281 -10.800781 Z M 2.9375 -22.316406 C 3.851562 -28.351562 5.679688 -33.117188 6.75 -34.347656 C 6.871094 -34.425781 7.027344 -34.464844 7.1875 -34.425781 C 7.304688 -34.386719 7.425781 -34.308594 7.503906 -34.148438 C 7.980469 -33.117188 6.632812 -28.074219 4.605469 -22.078125 C 4.527344 -21.71875 4.25 -21.441406 3.851562 -21.402344 C 3.652344 -21.363281 3.453125 -21.363281 3.214844 -21.363281 C 2.820312 -21.363281 2.898438 -21.996094 2.9375 -22.277344 Z M 2.460938 -16.082031 C 2.066406 -16.082031 2.222656 -18.859375 2.582031 -19.257812 C 2.898438 -19.457031 3.296875 -19.496094 3.613281 -19.296875 C 3.972656 -18.980469 2.898438 -16.082031 2.460938 -16.082031 Z M 2.460938 -16.082031 "/></g></g></g><g fill="#000000" fill-opacity="1"><g transform="translate(240.788871, 319.286137)"><g><path d="M 33.3125 -10.203125 C 33.117188 -10.402344 32.878906 -10.5625 32.597656 -10.5625 C 32.320312 -10.601562 32.042969 -10.523438 31.84375 -10.363281 C 31.6875 -10.246094 16.398438 1.90625 3.652344 -3.335938 C 1.070312 -4.40625 0.953125 -5.796875 1.03125 -6.550781 C 1.03125 -6.671875 1.070312 -6.789062 1.191406 -6.871094 C 1.269531 -6.949219 1.429688 -6.949219 1.546875 -6.910156 C 4.128906 -6.75 6.710938 -7.425781 8.933594 -8.816406 C 10.839844 -10.046875 11.15625 -11.394531 11.039062 -12.269531 C 10.960938 -13.699219 9.808594 -14.851562 8.339844 -14.890625 C 5.203125 -15.050781 -0.0390625 -11.316406 -0.914062 -7.347656 C -1.269531 -5.875 -1.230469 -3.097656 2.859375 -1.429688 C 5.359375 -0.398438 7.980469 0.078125 10.640625 0.078125 C 22.039062 0.078125 32.597656 -8.296875 33.15625 -8.734375 C 33.355469 -8.894531 33.511719 -9.171875 33.511719 -9.410156 C 33.550781 -9.6875 33.472656 -9.964844 33.3125 -10.203125 Z M 2.460938 -9.332031 C 4.011719 -11.476562 6.589844 -12.90625 8.21875 -12.785156 C 8.65625 -12.785156 8.894531 -12.625 8.972656 -12.03125 C 9.011719 -11.632812 8.578125 -11.078125 7.78125 -10.5625 C 6.15625 -9.488281 1.269531 -7.742188 2.460938 -9.332031 Z M 2.460938 -9.332031 "/></g></g></g><g fill="#000000" fill-opacity="1"><g transform="translate(272.592218, 319.286137)"><g><path d="M 27.238281 -10.800781 C 26.84375 -11.199219 26.167969 -11.199219 25.769531 -10.761719 C 25.691406 -10.679688 14.929688 0.160156 7.78125 -2.542969 C 4.605469 -3.773438 3.257812 -7.464844 2.738281 -11.117188 C 3.453125 -12.863281 4.644531 -15.765625 5.757812 -19.019531 C 5.875 -19.417969 5.996094 -19.457031 6.472656 -19.496094 C 11.832031 -19.894531 17.152344 -20.089844 20.289062 -20.089844 C 20.886719 -20.089844 21.324219 -20.566406 21.324219 -21.125 C 21.324219 -21.71875 20.886719 -22.15625 20.289062 -22.15625 C 17.273438 -22.15625 12.308594 -21.917969 7.226562 -21.640625 C 7.027344 -21.601562 6.671875 -21.71875 6.949219 -22.433594 C 8.855469 -27.875 10.203125 -33.394531 9.371094 -35.0625 C 8.535156 -36.730469 7.425781 -36.769531 6.871094 -36.648438 C 3.929688 -36.09375 1.785156 -28.46875 0.832031 -22.234375 C 0.753906 -21.679688 0.476562 -21.203125 -0.0390625 -21.164062 C -6.273438 -20.6875 -11.394531 -20.328125 -11.476562 -20.328125 C -12.070312 -20.289062 -12.507812 -19.8125 -12.46875 -19.21875 C -12.46875 -18.664062 -11.992188 -18.1875 -11.394531 -18.226562 L -11.316406 -18.226562 C -11.199219 -18.226562 -6.394531 -18.582031 -0.398438 -19.019531 C -0.199219 -19.058594 0 -19.019531 0.160156 -18.859375 C 0.316406 -18.742188 0.4375 -18.542969 0.4375 -18.34375 C -0.160156 -8.894531 2.222656 -2.421875 7.027344 -0.59375 C 8.058594 -0.238281 9.132812 -0.0390625 10.246094 -0.0390625 C 18.105469 -0.0390625 26.84375 -8.894531 27.277344 -9.292969 C 27.476562 -9.488281 27.558594 -9.769531 27.558594 -10.046875 C 27.558594 -10.324219 27.4375 -10.601562 27.238281 -10.800781 Z M 2.9375 -22.316406 C 3.851562 -28.351562 5.679688 -33.117188 6.75 -34.347656 C 6.871094 -34.425781 7.027344 -34.464844 7.1875 -34.425781 C 7.304688 -34.386719 7.425781 -34.308594 7.503906 -34.148438 C 7.980469 -33.117188 6.632812 -28.074219 4.605469 -22.078125 C 4.527344 -21.71875 4.25 -21.441406 3.851562 -21.402344 C 3.652344 -21.363281 3.453125 -21.363281 3.214844 -21.363281 C 2.820312 -21.363281 2.898438 -21.996094 2.9375 -22.277344 Z M 2.460938 -16.082031 C 2.066406 -16.082031 2.222656 -18.859375 2.582031 -19.257812 C 2.898438 -19.457031 3.296875 -19.496094 3.613281 -19.296875 C 3.972656 -18.980469 2.898438 -16.082031 2.460938 -16.082031 Z M 2.460938 -16.082031 "/></g></g></g><g fill="#000000" fill-opacity="1"><g transform="translate(103.064374, 353.099269)"><g><path d="M 8.714844 -13.234375 L 8.714844 -7.070312 L 2.511719 -7.070312 L 2.511719 -13.234375 L 1.011719 -13.234375 L 1.011719 0.0195312 L 2.511719 0.0195312 L 2.511719 -6.734375 L 8.714844 -6.734375 L 8.714844 0.0195312 L 10.234375 0.0195312 L 10.234375 -13.234375 Z M 8.714844 -13.234375 "/></g></g></g><g fill="#000000" fill-opacity="1"><g transform="translate(118.787492, 353.099269)"><g><path d="M 8.105469 -13.484375 C 4.304688 -13.484375 0.84375 -11.460938 0.84375 -6.5625 C 0.84375 -0.929688 5.445312 0.402344 8.105469 0.402344 C 10.742188 0.402344 15.363281 -0.929688 15.363281 -6.5625 C 15.363281 -11.460938 11.882812 -13.484375 8.105469 -13.484375 Z M 8.105469 0.0429688 C 5.71875 0.0429688 2.386719 -1.011719 2.386719 -6.5625 C 2.386719 -12.03125 6.058594 -13.148438 8.105469 -13.148438 C 10.152344 -13.148438 13.824219 -12.03125 13.824219 -6.5625 C 13.824219 -1.011719 10.46875 0.0429688 8.105469 0.0429688 Z M 8.105469 0.0429688 "/></g></g></g><g fill="#000000" fill-opacity="1"><g transform="translate(139.512213, 353.099269)"><g><path d="M 14.457031 -13.484375 L 14.414062 -13.484375 L 8.484375 -2.257812 L 2.636719 -13.484375 L 2.574219 -13.484375 L 0.761719 0.0195312 L 1.097656 0.0195312 L 2.511719 -10.445312 L 7.765625 -0.335938 L 7.851562 -0.335938 L 13.273438 -10.617188 L 14.519531 0.0195312 L 16.039062 0.0195312 Z M 14.457031 -13.484375 "/></g></g></g><g fill="#000000" fill-opacity="1"><g transform="translate(160.806746, 353.099269)"><g><path d="M 7.722656 -12.894531 L 7.722656 -13.234375 L 1.011719 -13.234375 L 1.011719 0.0195312 L 7.722656 0.0195312 L 7.722656 -0.316406 L 2.511719 -0.316406 L 2.511719 -6.734375 L 7.15625 -6.734375 L 7.15625 -7.070312 L 2.511719 -7.070312 L 2.511719 -12.894531 Z M 7.722656 -12.894531 "/></g></g></g><g fill="#000000" fill-opacity="1"><g transform="translate(173.828575, 353.099269)"><g/></g></g><g fill="#000000" fill-opacity="1"><g transform="translate(183.494903, 353.099269)"><g><path d="M 6.164062 -7.050781 C 7.617188 -7.429688 9.265625 -8.316406 9.265625 -10.40625 C 9.265625 -13.085938 5.972656 -13.234375 5.023438 -13.234375 L 1.011719 -13.234375 L 1.011719 0.0195312 L 4.644531 0.0195312 C 5.214844 0.0195312 9.730469 -0.0625 9.730469 -3.652344 C 9.730469 -5.953125 7.976562 -6.816406 6.164062 -7.050781 Z M 4.222656 -12.894531 C 6.246094 -12.894531 7.660156 -12.242188 7.660156 -10.171875 C 7.660156 -8.105469 6.140625 -7.113281 3.671875 -7.113281 L 2.511719 -7.113281 L 2.511719 -12.894531 Z M 3.671875 -0.316406 L 2.511719 -0.316406 L 2.511719 -6.773438 L 4.222656 -6.773438 C 7.429688 -6.773438 8.125 -5.109375 8.125 -3.417969 C 8.125 -0.929688 6.097656 -0.316406 3.671875 -0.316406 Z M 3.671875 -0.316406 "/></g></g></g><g fill="#000000" fill-opacity="1"><g transform="translate(198.45828, 353.099269)"><g><path d="M 11.039062 0.0195312 L 12.664062 0.0195312 L 6.859375 -13.484375 L 6.753906 -13.484375 L 0.738281 0.0195312 L 1.203125 0.0195312 L 3.585938 -5.296875 L 8.738281 -5.296875 Z M 3.734375 -5.65625 L 6.203125 -11.207031 L 8.589844 -5.65625 Z M 3.734375 -5.65625 "/></g></g></g><g fill="#000000" fill-opacity="1"><g transform="translate(216.270675, 353.099269)"><g><path d="M 1.011719 0.0195312 L 2.511719 0.0195312 L 2.511719 -13.234375 L 1.011719 -13.234375 Z M 4.15625 -7.640625 L 9.601562 -13.234375 L 9.117188 -13.234375 L 2.871094 -6.816406 L 8.714844 0.0195312 L 10.699219 0.0195312 Z M 4.15625 -7.640625 "/></g></g></g><g fill="#000000" fill-opacity="1"><g transform="translate(232.099315, 353.099269)"><g><path d="M 7.722656 -12.894531 L 7.722656 -13.234375 L 1.011719 -13.234375 L 1.011719 0.0195312 L 7.722656 0.0195312 L 7.722656 -0.316406 L 2.511719 -0.316406 L 2.511719 -6.734375 L 7.15625 -6.734375 L 7.15625 -7.070312 L 2.511719 -7.070312 L 2.511719 -12.894531 Z M 7.722656 -12.894531 "/></g></g></g><g fill="#000000" fill-opacity="1"><g transform="translate(245.12115, 353.099269)"><g><path d="M 10.300781 0.0195312 L 5.339844 -6.226562 C 6.902344 -6.4375 9.265625 -7.195312 9.265625 -9.917969 C 9.265625 -12.832031 6.097656 -13.234375 5.023438 -13.234375 C 3.988281 -13.234375 1.011719 -13.234375 1.011719 -13.234375 L 1.011719 0.0195312 L 2.511719 0.0195312 L 2.511719 -6.140625 L 3.480469 -6.140625 L 8.378906 0.0195312 Z M 2.511719 -12.894531 L 4.222656 -12.894531 C 6.375 -12.894531 7.660156 -12.007812 7.660156 -9.6875 C 7.660156 -7.324219 6.140625 -6.480469 3.671875 -6.480469 L 2.511719 -6.480469 Z M 2.511719 -12.894531 "/></g></g></g><g fill="#000000" fill-opacity="1"><g transform="translate(260.527702, 353.099269)"><g><path d="M 10.277344 -13.234375 L 6.269531 -6.5 L 2.40625 -13.234375 L 0.675781 -13.234375 L 4.9375 -5.761719 L 4.9375 0.0195312 L 6.457031 0.0195312 L 6.457031 -6.164062 L 10.699219 -13.234375 Z M 10.277344 -13.234375 "/></g></g></g></svg>