<svg xmlns="http://www.w3.org/2000/svg" xmlns:xlink="http://www.w3.org/1999/xlink" width="500" zoomAndPan="magnify" viewBox="0 0 375 374.999991" height="500" preserveAspectRatio="xMidYMid meet" version="1.0"><defs><g/><clipPath id="ea71c9a874"><path d="M 87 93 L 259 93 L 259 233 L 87 233 Z M 87 93 " clip-rule="nonzero"/></clipPath><clipPath id="aad6ee990d"><path d="M 40.949219 177.851562 L 146.363281 44.164062 L 295.367188 161.648438 L 189.953125 295.339844 Z M 40.949219 177.851562 " clip-rule="nonzero"/></clipPath><clipPath id="ebdd4a59b6"><path d="M 40.949219 177.851562 L 146.363281 44.164062 L 295.367188 161.648438 L 189.953125 295.339844 Z M 40.949219 177.851562 " clip-rule="nonzero"/></clipPath><clipPath id="aded99a61b"><path d="M 152 64 L 257 64 L 257 157 L 152 157 Z M 152 64 " clip-rule="nonzero"/></clipPath><clipPath id="62ea62e7d5"><path d="M 125.054688 106.027344 L 201.445312 35.085938 L 280.550781 120.273438 L 204.160156 191.210938 Z M 125.054688 106.027344 " clip-rule="nonzero"/></clipPath><clipPath id="3729c52484"><path d="M 125.054688 106.027344 L 201.445312 35.085938 L 280.550781 120.273438 L 204.160156 191.210938 Z M 125.054688 106.027344 " clip-rule="nonzero"/></clipPath><clipPath id="f94061600e"><path d="M 125.054688 106.027344 L 201.445312 35.085938 L 280.550781 120.273438 L 204.160156 191.210938 Z M 125.054688 106.027344 " clip-rule="nonzero"/></clipPath><clipPath id="a51c0386f6"><path d="M 117 22 L 178 22 L 178 104 L 117 104 Z M 117 22 " clip-rule="nonzero"/></clipPath><clipPath id="0565ee6fbf"><path d="M 202.550781 57.84375 L 159.914062 113.046875 L 101.152344 67.660156 L 143.789062 12.457031 Z M 202.550781 57.84375 " clip-rule="nonzero"/></clipPath><clipPath id="71ed0b5a01"><path d="M 202.550781 57.84375 L 159.914062 113.046875 L 101.152344 67.660156 L 143.789062 12.457031 Z M 202.550781 57.84375 " clip-rule="nonzero"/></clipPath><clipPath id="e519b3fdd7"><path d="M 54.359375 47.542969 L 292 47.542969 L 292 259.792969 L 54.359375 259.792969 Z M 54.359375 47.542969 " clip-rule="nonzero"/></clipPath><clipPath id="0e097ede33"><path d="M 119 17 L 186 17 L 186 109 L 119 109 Z M 119 17 " clip-rule="nonzero"/></clipPath><clipPath id="2bfcdf9ba3"><path d="M 114.894531 20.582031 L 180.636719 14.757812 L 188.644531 105.152344 L 122.902344 110.976562 Z M 114.894531 20.582031 " clip-rule="nonzero"/></clipPath><clipPath id="999e240cfd"><path d="M 114.894531 20.582031 L 180.636719 14.757812 L 188.644531 105.152344 L 122.902344 110.976562 Z M 114.894531 20.582031 " clip-rule="nonzero"/></clipPath><clipPath id="64c6833515"><path d="M 114.894531 20.582031 L 180.636719 14.757812 L 188.644531 105.152344 L 122.902344 110.976562 Z M 114.894531 20.582031 " clip-rule="nonzero"/></clipPath></defs><rect x="-37.5" width="450" fill="#ffffff" y="-37.499999" height="449.999989" fill-opacity="1"/><rect x="-37.5" width="450" fill="#f8f5f1" y="-37.499999" height="449.999989" fill-opacity="1"/><g clip-path="url(#ea71c9a874)"><g clip-path="url(#aad6ee990d)"><g clip-path="url(#ebdd4a59b6)"><path fill="#ffffff" d="M 91.332031 195.34375 C 89.371094 191.308594 88.097656 186.707031 87.679688 181.460938 C 85 147.589844 107.039062 94.074219 146.878906 93.765625 C 163.8125 93.632812 182.359375 98.367188 198.84375 101.957031 C 223.554688 107.339844 240.925781 118.710938 249.636719 143.554688 C 256.546875 163.261719 261.90625 187.890625 254.335938 208.175781 C 250.226562 219.183594 241.378906 228.894531 229.964844 231.691406 C 220.570312 234 210.761719 231.515625 201.234375 229.820312 C 168.726562 224.03125 108.84375 231.378906 91.332031 195.34375 " fill-opacity="1" fill-rule="nonzero"/></g></g></g><g clip-path="url(#aded99a61b)"><g clip-path="url(#62ea62e7d5)"><g clip-path="url(#3729c52484)"><g clip-path="url(#f94061600e)"><path fill="#ffe2d4" d="M 153.875 121.351562 C 153.070312 118.726562 152.734375 115.824219 152.980469 112.609375 C 154.558594 91.871094 172.945312 61.574219 197.074219 65.140625 C 207.328125 66.652344 218.09375 71.265625 227.726562 74.988281 C 242.164062 80.570312 251.597656 89.085938 254.515625 104.929688 C 256.835938 117.5 257.75 132.902344 251.253906 144.460938 C 247.730469 150.730469 241.457031 155.773438 234.292969 156.390625 C 228.390625 156.898438 222.691406 154.476562 217.089844 152.554688 C 197.976562 145.992188 161.0625 144.796875 153.875 121.351562 " fill-opacity="1" fill-rule="nonzero"/></g></g></g></g><g clip-path="url(#a51c0386f6)"><g clip-path="url(#0565ee6fbf)"><g clip-path="url(#71ed0b5a01)"><path fill="#ffcad4" d="M 142.332031 95.367188 C 146.21875 97.148438 150.175781 98.769531 154.035156 100.605469 C 156.976562 102.003906 160.03125 103.800781 163.429688 103.332031 C 167.851562 102.722656 170.863281 98.882812 172.496094 95.011719 C 174.226562 90.898438 175.441406 86.386719 176.351562 82.027344 C 178.484375 71.804688 177.210938 61.621094 174.804688 51.578125 C 174.125 48.753906 173.285156 45.601562 172.09375 42.609375 C 171.691406 37.6875 168.28125 33.140625 164.832031 29.746094 C 160.132812 25.125 153.851562 22.464844 147.246094 22.160156 C 143.695312 21.996094 140.082031 22.457031 136.960938 24.273438 C 133.328125 26.382812 130.800781 30.332031 128.789062 33.90625 C 126.445312 38.078125 124.804688 42.582031 123.296875 47.113281 C 122.125 50.628906 120.773438 54.089844 119.664062 57.625 C 118.53125 61.234375 117.644531 64.9375 117.75 68.734375 C 117.863281 72.800781 119.558594 76.664062 121.746094 80.023438 C 126.550781 87.390625 134.542969 91.796875 142.332031 95.367188 Z M 142.332031 95.367188 " fill-opacity="1" fill-rule="nonzero"/></g></g></g><g fill="#000000" fill-opacity="1"><g transform="translate(40.914066, 311.511294)"><g><path d="M 68.007812 -15.910156 C 70.429688 -20.019531 72.011719 -19.015625 75.433594 -18.226562 C 79.542969 -16.644531 83.390625 -15.171875 86.867188 -13.90625 C 87.972656 -13.484375 88.710938 -12.589844 88.867188 -11.429688 C 89.761719 -4.953125 91.132812 -1.527344 93.238281 -0.84375 C 93.609375 -0.683594 93.976562 -0.738281 94.292969 -0.894531 C 94.609375 -1.054688 94.871094 -1.371094 94.976562 -1.6875 C 95.1875 -2.421875 94.820312 -3.214844 94.082031 -3.476562 C 93.1875 -3.792969 92.503906 -5.898438 91.976562 -9.113281 C 91.816406 -9.796875 92.082031 -10.484375 92.609375 -10.90625 C 93.082031 -11.324219 93.820312 -11.484375 94.453125 -11.273438 C 98.035156 -9.957031 101.828125 -9.164062 105.671875 -8.957031 C 105.988281 -8.957031 106.355469 -9.113281 106.621094 -9.375 C 106.882812 -9.640625 106.988281 -10.007812 106.988281 -10.378906 C 106.988281 -10.746094 106.832031 -11.113281 106.566406 -11.324219 C 106.304688 -11.589844 105.933594 -11.746094 105.566406 -11.746094 C 101.300781 -12.0625 97.136719 -13.0625 93.132812 -14.644531 C 91.976562 -15.011719 91.132812 -16.066406 91.027344 -17.277344 C 90.183594 -28.289062 90.078125 -43.089844 90.027344 -51.359375 C 89.972656 -62.898438 89.867188 -67.375 89.339844 -68.640625 C 89.132812 -69.21875 88.605469 -69.585938 88.023438 -69.535156 C 87.394531 -69.480469 86.917969 -69.0625 86.761719 -68.480469 C 83.652344 -57.261719 79.808594 -46.25 75.222656 -35.558594 C 73.695312 -32.082031 72.222656 -28.921875 70.695312 -25.96875 C 70.007812 -24.601562 68.324219 -23.96875 66.902344 -24.496094 C 49.621094 -31.132812 29.867188 -38.246094 14.75 -39.402344 C 8.902344 -39.824219 5.109375 -38.769531 3.476562 -36.296875 C 2.105469 -34.1875 2.371094 -31.394531 4.214844 -27.972656 C 10.007812 -17.382812 32.34375 -0.527344 47.988281 -0.527344 C 55.363281 -0.527344 62.160156 -7.007812 68.007812 -15.910156 Z M 12.167969 -36.714844 C 12.90625 -36.714844 13.695312 -36.714844 14.539062 -36.664062 C 28.921875 -35.558594 47.832031 -28.867188 64.582031 -22.441406 C 65.425781 -22.125 66.109375 -21.386719 66.375 -20.542969 C 66.691406 -19.648438 66.53125 -18.699219 66.058594 -17.910156 C 59.894531 -8.269531 53.785156 -3.320312 47.988281 -3.320312 C 34.503906 -3.320312 12.589844 -18.382812 6.636719 -29.289062 C 5.742188 -30.972656 4.847656 -33.292969 5.792969 -34.765625 C 6.585938 -36.03125 8.851562 -36.714844 12.167969 -36.714844 Z M 86.179688 -56.945312 C 86.550781 -58.050781 87.234375 -57.839844 87.234375 -56.628906 C 87.234375 -54.941406 87.234375 -53.152344 87.289062 -51.359375 C 87.339844 -38.402344 87.550781 -28.078125 88.023438 -20.226562 C 88.128906 -19.332031 87.707031 -18.542969 87.023438 -18.015625 C 86.339844 -17.488281 85.445312 -17.382812 84.652344 -17.699219 C 81.335938 -18.964844 77.753906 -20.332031 74.066406 -21.757812 L 72.011719 -22.546875 C 77.753906 -33.554688 82.492188 -45.09375 86.179688 -56.945312 Z M 86.179688 -56.945312 "/></g></g></g><g fill="#000000" fill-opacity="1"><g transform="translate(150.6877, 311.511294)"><g><path d="M 36.136719 -14.589844 C 35.875 -14.855469 35.558594 -14.960938 35.1875 -14.960938 C 34.820312 -14.960938 34.453125 -14.855469 34.1875 -14.589844 C 29.132812 -9.796875 22.914062 -6.425781 16.121094 -4.792969 C 15.855469 -4.6875 15.539062 -4.792969 15.382812 -5.003906 C 15.222656 -5.269531 15.171875 -5.53125 15.328125 -5.792969 C 16.277344 -7.636719 16.066406 -9.851562 14.855469 -11.535156 C 14.117188 -12.539062 13.167969 -13.378906 12.0625 -14.011719 C 10.589844 -15.011719 8.957031 -16.171875 8.902344 -17.382812 C 8.957031 -18.070312 9.21875 -18.699219 9.691406 -19.226562 L 12.539062 -21.914062 C 13.0625 -22.441406 13.117188 -23.285156 12.644531 -23.808594 C 12.167969 -24.390625 11.378906 -24.496094 10.746094 -24.019531 C 9.640625 -23.179688 8.585938 -22.230469 7.691406 -21.125 L -0.421875 -13.539062 C -0.789062 -13.222656 -0.949219 -12.695312 -0.84375 -12.222656 C -0.738281 -11.695312 -0.367188 -11.324219 0.105469 -11.167969 C 0.578125 -11.0625 1.105469 -11.167969 1.476562 -11.535156 L 5.476562 -15.277344 C 5.6875 -15.488281 5.953125 -15.539062 6.214844 -15.539062 C 6.480469 -15.488281 6.691406 -15.328125 6.796875 -15.117188 C 7.796875 -13.75 9.0625 -12.589844 10.484375 -11.746094 C 11.273438 -11.273438 11.957031 -10.746094 12.539062 -10.0625 C 13.0625 -9.480469 13.328125 -8.691406 13.167969 -7.902344 C 13.011719 -7.113281 12.539062 -6.425781 11.851562 -6.058594 C 8.480469 -4.160156 4.214844 -5.058594 1.894531 -8.164062 C 1.527344 -8.746094 0.683594 -8.957031 0.0507812 -8.535156 C -0.578125 -8.164062 -0.789062 -7.375 -0.421875 -6.691406 C 1.316406 -3.6875 4.425781 -1.738281 7.902344 -1.476562 C 8.796875 -1.316406 9.640625 -1.265625 10.535156 -1.265625 C 19.4375 -1.265625 30.394531 -6.847656 36.136719 -12.644531 C 36.664062 -13.167969 36.664062 -14.066406 36.136719 -14.589844 Z M 36.136719 -14.589844 "/></g></g></g><g fill="#000000" fill-opacity="1"><g transform="translate(184.715409, 311.511294)"><g><path d="M 41.5625 -12.589844 C 41.035156 -13.167969 40.191406 -13.222656 39.613281 -12.695312 C 39.507812 -12.644531 28.65625 -3.160156 20.703125 -4.425781 C 18.332031 -4.792969 16.277344 -6.214844 15.117188 -8.324219 C 14.117188 -10.167969 12.273438 -11.324219 10.21875 -11.535156 C 7.636719 -11.695312 4.792969 -10.167969 1.792969 -7.007812 C 1.632812 -6.847656 1.371094 -6.796875 1.160156 -6.902344 C 0.949219 -7.007812 0.84375 -7.21875 0.894531 -7.480469 C 1.054688 -8.480469 1.527344 -11.007812 1.738281 -11.957031 C 1.738281 -11.800781 2.105469 -12.539062 2.105469 -12.589844 C 6.585938 -18.699219 19.964844 -38.085938 14.75 -44.300781 C 14.066406 -45.25 12.800781 -45.671875 11.640625 -45.355469 C 10.589844 -45.039062 7.375 -44.039062 2.421875 -26.445312 C 1.210938 -22.175781 0.105469 -17.59375 -0.789062 -13.273438 L -1.160156 -12.800781 C -1.527344 -12.328125 -1.527344 -11.695312 -1.210938 -11.167969 C -2 -7.269531 -2.527344 -3.6875 -2.792969 -0.949219 C -2.84375 -0.316406 -2.476562 0.261719 -1.894531 0.472656 C -1.316406 0.683594 -0.632812 0.472656 -0.261719 -0.0507812 C 5.109375 -7.847656 8.535156 -8.851562 10.0625 -8.796875 C 11.167969 -8.691406 12.167969 -8.007812 12.695312 -7.007812 C 14.277344 -4.160156 17.066406 -2.160156 20.332031 -1.6875 C 29.5 -0.261719 40.929688 -10.21875 41.457031 -10.640625 C 41.984375 -11.167969 42.035156 -12.011719 41.5625 -12.589844 Z M 12.433594 -42.722656 C 12.539062 -42.722656 12.589844 -42.5625 12.644531 -42.511719 C 15.171875 -39.667969 4.6875 -18.488281 3.371094 -19.332031 C 2.105469 -20.121094 10.21875 -42.722656 12.433594 -42.722656 Z M 12.433594 -42.722656 "/></g></g></g><g fill="#000000" fill-opacity="1"><g transform="translate(224.537308, 311.511294)"><g><path d="M 36.136719 -14.328125 C 35.609375 -14.855469 34.714844 -14.855469 34.1875 -14.277344 C 34.082031 -14.171875 19.808594 0.210938 10.324219 -3.371094 C 6.109375 -5.003906 4.320312 -9.902344 3.636719 -14.75 C 4.582031 -17.066406 6.164062 -20.914062 7.636719 -25.234375 C 7.796875 -25.757812 7.953125 -25.8125 8.585938 -25.863281 C 15.699219 -26.390625 22.757812 -26.65625 26.917969 -26.65625 C 27.707031 -26.65625 28.289062 -27.289062 28.289062 -28.023438 C 28.289062 -28.816406 27.707031 -29.394531 26.917969 -29.394531 C 22.914062 -29.394531 16.332031 -29.078125 9.585938 -28.710938 C 9.324219 -28.65625 8.851562 -28.816406 9.21875 -29.761719 C 11.746094 -36.980469 13.539062 -44.300781 12.433594 -46.515625 C 11.324219 -48.726562 9.851562 -48.78125 9.113281 -48.621094 C 5.214844 -47.882812 2.371094 -37.769531 1.105469 -29.5 C 1 -28.761719 0.632812 -28.128906 -0.0507812 -28.078125 C -8.324219 -27.445312 -15.117188 -26.972656 -15.222656 -26.972656 C -16.015625 -26.917969 -16.59375 -26.285156 -16.539062 -25.496094 C -16.539062 -24.757812 -15.910156 -24.125 -15.117188 -24.179688 L -15.011719 -24.179688 C -14.855469 -24.179688 -8.480469 -24.652344 -0.527344 -25.234375 C -0.261719 -25.285156 0 -25.234375 0.210938 -25.023438 C 0.421875 -24.863281 0.578125 -24.601562 0.578125 -24.335938 C -0.210938 -11.800781 2.949219 -3.214844 9.324219 -0.789062 C 10.695312 -0.316406 12.117188 -0.0507812 13.589844 -0.0507812 C 24.019531 -0.0507812 35.609375 -11.800781 36.191406 -12.328125 C 36.453125 -12.589844 36.558594 -12.957031 36.558594 -13.328125 C 36.558594 -13.695312 36.402344 -14.066406 36.136719 -14.328125 Z M 3.898438 -29.605469 C 5.109375 -37.613281 7.53125 -43.933594 8.957031 -45.566406 C 9.113281 -45.671875 9.324219 -45.722656 9.535156 -45.671875 C 9.691406 -45.617188 9.851562 -45.515625 9.957031 -45.304688 C 10.589844 -43.933594 8.796875 -37.242188 6.109375 -29.289062 C 6.003906 -28.816406 5.636719 -28.445312 5.109375 -28.394531 C 4.847656 -28.339844 4.582031 -28.339844 4.265625 -28.339844 C 3.738281 -28.339844 3.84375 -29.183594 3.898438 -29.550781 Z M 3.265625 -21.335938 C 2.738281 -21.335938 2.949219 -25.023438 3.425781 -25.546875 C 3.84375 -25.8125 4.371094 -25.863281 4.792969 -25.601562 C 5.269531 -25.179688 3.84375 -21.335938 3.265625 -21.335938 Z M 3.265625 -21.335938 "/></g></g></g><g fill="#000000" fill-opacity="1"><g transform="translate(258.196306, 311.511294)"><g><path d="M 44.195312 -13.539062 C 43.933594 -13.800781 43.617188 -14.011719 43.25 -14.011719 C 42.878906 -14.066406 42.511719 -13.960938 42.246094 -13.75 C 42.035156 -13.589844 21.757812 2.527344 4.847656 -4.425781 C 1.421875 -5.847656 1.265625 -7.691406 1.371094 -8.691406 C 1.371094 -8.851562 1.421875 -9.007812 1.582031 -9.113281 C 1.6875 -9.21875 1.894531 -9.21875 2.054688 -9.164062 C 5.476562 -8.957031 8.902344 -9.851562 11.851562 -11.695312 C 14.382812 -13.328125 14.800781 -15.117188 14.644531 -16.277344 C 14.539062 -18.175781 13.011719 -19.703125 11.0625 -19.753906 C 6.902344 -19.964844 -0.0507812 -15.011719 -1.210938 -9.746094 C -1.6875 -7.796875 -1.632812 -4.109375 3.792969 -1.894531 C 7.113281 -0.527344 10.589844 0.105469 14.117188 0.105469 C 29.234375 0.105469 43.25 -11.007812 43.984375 -11.589844 C 44.25 -11.800781 44.460938 -12.167969 44.460938 -12.484375 C 44.511719 -12.851562 44.40625 -13.222656 44.195312 -13.539062 Z M 3.265625 -12.378906 C 5.320312 -15.222656 8.746094 -17.121094 10.90625 -16.960938 C 11.484375 -16.960938 11.800781 -16.75 11.90625 -15.960938 C 11.957031 -15.433594 11.378906 -14.695312 10.324219 -14.011719 C 8.164062 -12.589844 1.6875 -10.273438 3.265625 -12.378906 Z M 3.265625 -12.378906 "/></g></g></g><g fill="#000000" fill-opacity="1"><g transform="translate(300.388581, 311.511294)"><g><path d="M 36.136719 -14.328125 C 35.609375 -14.855469 34.714844 -14.855469 34.1875 -14.277344 C 34.082031 -14.171875 19.808594 0.210938 10.324219 -3.371094 C 6.109375 -5.003906 4.320312 -9.902344 3.636719 -14.75 C 4.582031 -17.066406 6.164062 -20.914062 7.636719 -25.234375 C 7.796875 -25.757812 7.953125 -25.8125 8.585938 -25.863281 C 15.699219 -26.390625 22.757812 -26.65625 26.917969 -26.65625 C 27.707031 -26.65625 28.289062 -27.289062 28.289062 -28.023438 C 28.289062 -28.816406 27.707031 -29.394531 26.917969 -29.394531 C 22.914062 -29.394531 16.332031 -29.078125 9.585938 -28.710938 C 9.324219 -28.65625 8.851562 -28.816406 9.21875 -29.761719 C 11.746094 -36.980469 13.539062 -44.300781 12.433594 -46.515625 C 11.324219 -48.726562 9.851562 -48.78125 9.113281 -48.621094 C 5.214844 -47.882812 2.371094 -37.769531 1.105469 -29.5 C 1 -28.761719 0.632812 -28.128906 -0.0507812 -28.078125 C -8.324219 -27.445312 -15.117188 -26.972656 -15.222656 -26.972656 C -16.015625 -26.917969 -16.59375 -26.285156 -16.539062 -25.496094 C -16.539062 -24.757812 -15.910156 -24.125 -15.117188 -24.179688 L -15.011719 -24.179688 C -14.855469 -24.179688 -8.480469 -24.652344 -0.527344 -25.234375 C -0.261719 -25.285156 0 -25.234375 0.210938 -25.023438 C 0.421875 -24.863281 0.578125 -24.601562 0.578125 -24.335938 C -0.210938 -11.800781 2.949219 -3.214844 9.324219 -0.789062 C 10.695312 -0.316406 12.117188 -0.0507812 13.589844 -0.0507812 C 24.019531 -0.0507812 35.609375 -11.800781 36.191406 -12.328125 C 36.453125 -12.589844 36.558594 -12.957031 36.558594 -13.328125 C 36.558594 -13.695312 36.402344 -14.066406 36.136719 -14.328125 Z M 3.898438 -29.605469 C 5.109375 -37.613281 7.53125 -43.933594 8.957031 -45.566406 C 9.113281 -45.671875 9.324219 -45.722656 9.535156 -45.671875 C 9.691406 -45.617188 9.851562 -45.515625 9.957031 -45.304688 C 10.589844 -43.933594 8.796875 -37.242188 6.109375 -29.289062 C 6.003906 -28.816406 5.636719 -28.445312 5.109375 -28.394531 C 4.847656 -28.339844 4.582031 -28.339844 4.265625 -28.339844 C 3.738281 -28.339844 3.84375 -29.183594 3.898438 -29.550781 Z M 3.265625 -21.335938 C 2.738281 -21.335938 2.949219 -25.023438 3.425781 -25.546875 C 3.84375 -25.8125 4.371094 -25.863281 4.792969 -25.601562 C 5.269531 -25.179688 3.84375 -21.335938 3.265625 -21.335938 Z M 3.265625 -21.335938 "/></g></g></g><g fill="#000000" fill-opacity="1"><g transform="translate(75.482523, 356.369882)"><g><path d="M 11.5625 -17.554688 L 11.5625 -9.378906 L 3.332031 -9.378906 L 3.332031 -17.554688 L 1.34375 -17.554688 L 1.34375 0.0273438 L 3.332031 0.0273438 L 3.332031 -8.933594 L 11.5625 -8.933594 L 11.5625 0.0273438 L 13.578125 0.0273438 L 13.578125 -17.554688 Z M 11.5625 -17.554688 "/></g></g></g><g fill="#000000" fill-opacity="1"><g transform="translate(96.341777, 356.369882)"><g><path d="M 10.75 -17.890625 C 5.710938 -17.890625 1.121094 -15.203125 1.121094 -8.707031 C 1.121094 -1.230469 7.222656 0.53125 10.75 0.53125 C 14.25 0.53125 20.382812 -1.230469 20.382812 -8.707031 C 20.382812 -15.203125 15.765625 -17.890625 10.75 -17.890625 Z M 10.75 0.0546875 C 7.585938 0.0546875 3.164062 -1.34375 3.164062 -8.707031 C 3.164062 -15.960938 8.035156 -17.445312 10.75 -17.445312 C 13.46875 -17.445312 18.339844 -15.960938 18.339844 -8.707031 C 18.339844 -1.34375 13.886719 0.0546875 10.75 0.0546875 Z M 10.75 0.0546875 "/></g></g></g><g fill="#000000" fill-opacity="1"><g transform="translate(123.836465, 356.369882)"><g><path d="M 19.179688 -17.890625 L 19.125 -17.890625 L 11.253906 -2.996094 L 3.5 -17.890625 L 3.414062 -17.890625 L 1.007812 0.0273438 L 1.457031 0.0273438 L 3.332031 -13.859375 L 10.304688 -0.449219 L 10.414062 -0.449219 L 17.613281 -14.082031 L 19.261719 0.0273438 L 21.28125 0.0273438 Z M 19.179688 -17.890625 "/></g></g></g><g fill="#000000" fill-opacity="1"><g transform="translate(152.087099, 356.369882)"><g><path d="M 10.246094 -17.109375 L 10.246094 -17.554688 L 1.34375 -17.554688 L 1.34375 0.0273438 L 10.246094 0.0273438 L 10.246094 -0.421875 L 3.332031 -0.421875 L 3.332031 -8.933594 L 9.492188 -8.933594 L 9.492188 -9.378906 L 3.332031 -9.378906 L 3.332031 -17.109375 Z M 10.246094 -17.109375 "/></g></g></g><g fill="#000000" fill-opacity="1"><g transform="translate(169.362657, 356.369882)"><g/></g></g><g fill="#000000" fill-opacity="1"><g transform="translate(182.186601, 356.369882)"><g><path d="M 8.175781 -9.351562 C 10.109375 -9.855469 12.292969 -11.03125 12.292969 -13.804688 C 12.292969 -17.359375 7.925781 -17.554688 6.664062 -17.554688 L 1.34375 -17.554688 L 1.34375 0.0273438 L 6.160156 0.0273438 C 6.914062 0.0273438 12.90625 -0.0859375 12.90625 -4.84375 C 12.90625 -7.894531 10.582031 -9.042969 8.175781 -9.351562 Z M 5.601562 -17.109375 C 8.289062 -17.109375 10.164062 -16.238281 10.164062 -13.496094 C 10.164062 -10.75 8.148438 -9.4375 4.871094 -9.4375 L 3.332031 -9.4375 L 3.332031 -17.109375 Z M 4.871094 -0.421875 L 3.332031 -0.421875 L 3.332031 -8.988281 L 5.601562 -8.988281 C 9.855469 -8.988281 10.78125 -6.777344 10.78125 -4.535156 C 10.78125 -1.230469 8.09375 -0.421875 4.871094 -0.421875 Z M 4.871094 -0.421875 "/></g></g></g><g fill="#000000" fill-opacity="1"><g transform="translate(202.037936, 356.369882)"><g><path d="M 14.644531 0.0273438 L 16.800781 0.0273438 L 9.101562 -17.890625 L 8.960938 -17.890625 L 0.980469 0.0273438 L 1.597656 0.0273438 L 4.761719 -7.027344 L 11.589844 -7.027344 Z M 4.957031 -7.503906 L 8.230469 -14.867188 L 11.394531 -7.503906 Z M 4.957031 -7.503906 "/></g></g></g><g fill="#000000" fill-opacity="1"><g transform="translate(225.668953, 356.369882)"><g><path d="M 1.34375 0.0273438 L 3.332031 0.0273438 L 3.332031 -17.554688 L 1.34375 -17.554688 Z M 5.515625 -10.136719 L 12.738281 -17.554688 L 12.097656 -17.554688 L 3.808594 -9.042969 L 11.5625 0.0273438 L 14.195312 0.0273438 Z M 5.515625 -10.136719 "/></g></g></g><g fill="#000000" fill-opacity="1"><g transform="translate(246.668199, 356.369882)"><g><path d="M 10.246094 -17.109375 L 10.246094 -17.554688 L 1.34375 -17.554688 L 1.34375 0.0273438 L 10.246094 0.0273438 L 10.246094 -0.421875 L 3.332031 -0.421875 L 3.332031 -8.933594 L 9.492188 -8.933594 L 9.492188 -9.378906 L 3.332031 -9.378906 L 3.332031 -17.109375 Z M 10.246094 -17.109375 "/></g></g></g><g fill="#000000" fill-opacity="1"><g transform="translate(263.943765, 356.369882)"><g><path d="M 13.664062 0.0273438 L 7.082031 -8.261719 C 9.15625 -8.539062 12.292969 -9.546875 12.292969 -13.160156 C 12.292969 -17.023438 8.09375 -17.554688 6.664062 -17.554688 C 5.292969 -17.554688 1.34375 -17.554688 1.34375 -17.554688 L 1.34375 0.0273438 L 3.332031 0.0273438 L 3.332031 -8.148438 L 4.621094 -8.148438 L 11.117188 0.0273438 Z M 3.332031 -17.109375 L 5.601562 -17.109375 C 8.457031 -17.109375 10.164062 -15.933594 10.164062 -12.851562 C 10.164062 -9.714844 8.148438 -8.597656 4.871094 -8.597656 L 3.332031 -8.597656 Z M 3.332031 -17.109375 "/></g></g></g><g fill="#000000" fill-opacity="1"><g transform="translate(284.383042, 356.369882)"><g><path d="M 13.636719 -17.554688 L 8.316406 -8.625 L 3.191406 -17.554688 L 0.894531 -17.554688 L 6.550781 -7.644531 L 6.550781 0.0273438 L 8.566406 0.0273438 L 8.566406 -8.175781 L 14.195312 -17.554688 Z M 13.636719 -17.554688 "/></g></g></g><g clip-path="url(#e519b3fdd7)"><path fill="#000000" d="M 217.777344 47.601562 C 212.496094 48.007812 206.300781 50.066406 201.050781 53.15625 C 194.203125 57.171875 188.953125 62.585938 185.542969 69.121094 C 183.863281 72.34375 182.671875 75.898438 182.070312 79.515625 C 181.765625 81.3125 181.648438 82.648438 181.601562 84.847656 C 181.566406 86.429688 181.535156 86.925781 181.460938 86.957031 C 181.410156 86.972656 180.773438 86.941406 180.046875 86.875 C 167.511719 85.769531 152.832031 86.175781 135.890625 88.097656 C 111.554688 90.855469 81.65625 96.980469 68.542969 101.882812 C 63.964844 103.597656 61.101562 105.253906 59.078125 107.347656 C 56.824219 109.679688 55.738281 112.382812 55.300781 116.769531 C 55.074219 119.101562 55.027344 121.886719 55.125 128.746094 C 55.222656 135.832031 55.183594 148.980469 55.042969 153.769531 C 55.007812 155.324219 54.886719 159.746094 54.785156 163.609375 C 54.679688 167.46875 54.5625 172.179688 54.507812 174.078125 C 54.382812 178.816406 54.382812 191.144531 54.507812 192.902344 C 54.648438 194.886719 54.871094 196.773438 55.125 198.054688 C 56.320312 204.144531 59.316406 207.292969 66.058594 209.566406 C 68.601562 210.417969 71.621094 211.183594 76.9375 212.320312 C 82.828125 213.582031 100.917969 217.230469 118.050781 220.605469 C 153.519531 227.585938 174.957031 232.050781 196.5625 236.929688 C 221.605469 242.585938 238.476562 246.960938 259.425781 253.25 C 269.332031 256.21875 275.328125 258.144531 277.90625 259.183594 C 279.414062 259.792969 280.304688 259.777344 280.949219 259.128906 C 281.683594 258.394531 281.503906 257.15625 280.5625 256.40625 C 279.503906 255.550781 275.265625 254.050781 265.097656 250.910156 C 238.558594 242.707031 215.113281 236.765625 177.121094 228.621094 C 159.9375 224.929688 146.15625 222.121094 119.945312 216.960938 C 98.277344 212.699219 81.367188 209.277344 75.5 207.96875 C 61.703125 204.910156 59.402344 203.039062 58.574219 194.238281 C 58.34375 191.757812 58.285156 189.210938 58.328125 182.988281 C 58.351562 179.664062 58.410156 175.601562 58.453125 173.96875 C 58.492188 172.335938 58.582031 169.089844 58.640625 166.765625 C 58.90625 156.652344 58.972656 153.777344 59.046875 150.316406 C 59.144531 145.566406 59.144531 133.996094 59.046875 127.894531 C 58.898438 119.257812 59.109375 116.011719 59.945312 113.375 C 60.96875 110.144531 63.46875 108.109375 69.171875 105.859375 C 80.378906 101.429688 108.433594 95.464844 131.921875 92.519531 C 149.960938 90.253906 165.121094 89.628906 177.984375 90.625 C 180.875 90.847656 181.796875 90.949219 181.921875 91.078125 C 181.980469 91.128906 182.160156 91.828125 182.324219 92.621094 C 183.925781 100.523438 187.886719 107.84375 193.707031 113.679688 C 197.1875 117.171875 200.84375 119.710938 204.847656 121.425781 C 209.90625 123.585938 214.957031 124.007812 219 122.621094 C 222.820312 121.300781 225.335938 118.597656 226.136719 114.957031 C 226.335938 114.023438 226.320312 111.710938 226.097656 110.710938 C 225.425781 107.660156 223.753906 104.761719 221.078125 101.992188 C 214.363281 95.035156 202.578125 90.039062 187.515625 87.765625 C 186.386719 87.59375 185.742188 87.460938 185.675781 87.394531 C 185.421875 87.148438 185.488281 83.585938 185.769531 81.34375 C 186.972656 72.046875 192.304688 63.738281 200.753906 58.003906 C 205.695312 54.648438 211.441406 52.382812 216.8125 51.671875 C 218.242188 51.476562 220.632812 51.441406 221.921875 51.589844 C 226.589844 52.128906 229.824219 54.328125 233.566406 59.488281 C 235.398438 62.015625 236.929688 64.464844 242.871094 74.390625 C 245.480469 78.757812 249.121094 84.863281 250.96875 87.945312 C 264.179688 110.035156 271.089844 122.382812 278.027344 136.285156 C 283.835938 147.90625 286.824219 155.03125 287.691406 159.300781 C 287.875 160.199219 287.875 161.476562 287.691406 161.847656 C 287.378906 162.480469 286.578125 162.6875 284.6875 162.621094 C 282.75 162.554688 280.519531 162.160156 276.855469 161.234375 C 270.59375 159.652344 264.34375 157.660156 242.140625 150.191406 C 217.992188 142.074219 205.042969 137.871094 188.070312 132.644531 C 163.757812 125.160156 133.207031 116.488281 115.085938 111.929688 C 98.335938 107.71875 92.5 107.144531 88.28125 109.328125 C 87.359375 109.804688 86.738281 110.28125 85.949219 111.105469 C 83.84375 113.324219 82.574219 116.886719 81.976562 122.292969 C 81.394531 127.484375 81.410156 133.898438 82.011719 137.992188 C 82.5625 141.703125 83.746094 144.472656 85.667969 146.472656 C 89.058594 150.003906 94.074219 151.839844 109.863281 155.285156 C 111.347656 155.613281 116.515625 156.71875 121.351562 157.742188 C 141.996094 162.125 154.316406 164.878906 169.566406 168.511719 C 190.347656 173.464844 215.789062 180.035156 239.582031 186.597656 C 265.246094 193.683594 272.316406 196.171875 275.339844 199.167969 C 277.671875 201.488281 278.203125 204.375 278.523438 216.367188 C 278.636719 220.496094 278.492188 223.207031 278.109375 224.558594 C 277.632812 226.214844 276.789062 226.761719 274.554688 226.851562 C 271.640625 226.972656 266.648438 226.003906 258.429688 223.75 C 252.179688 222.027344 246.621094 220.355469 225.082031 213.730469 C 192.292969 203.648438 179.957031 199.957031 148.871094 190.972656 C 113.058594 180.621094 102.0625 177.242188 90.238281 172.964844 C 88.570312 172.355469 86.988281 171.820312 86.738281 171.777344 C 84.90625 171.414062 83.652344 172.921875 84.527344 174.421875 C 84.890625 175.035156 85.335938 175.296875 87.523438 176.136719 C 94.976562 179.003906 106.84375 182.796875 125.507812 188.292969 C 129.84375 189.5625 136.675781 191.550781 147.796875 194.757812 C 178.925781 203.75 191.957031 207.636719 225.304688 217.890625 C 249.195312 225.234375 255.410156 227.066406 262.019531 228.722656 C 267.851562 230.179688 271.195312 230.742188 274.074219 230.75 C 276.097656 230.757812 277.210938 230.542969 278.488281 229.917969 C 280.785156 228.796875 281.863281 226.890625 282.320312 223.125 C 282.523438 221.46875 282.433594 213.835938 282.15625 209.277344 C 281.863281 204.34375 281.355469 201.648438 280.339844 199.519531 C 278.292969 195.226562 274.214844 192.828125 262.800781 189.21875 C 248.542969 184.707031 207.414062 173.65625 179.949219 166.957031 C 160.21875 162.152344 145.710938 158.871094 121.613281 153.769531 C 107.195312 150.71875 102.3125 149.597656 98.25 148.425781 C 89.851562 145.996094 87.234375 143.910156 86.15625 138.785156 C 85.617188 136.230469 85.378906 132.148438 85.527344 128.011719 C 85.792969 120.371094 86.824219 115.921875 88.8125 113.800781 C 91.121094 111.339844 95.734375 111.429688 107.59375 114.164062 C 123.023438 117.71875 158.847656 127.773438 187.253906 136.519531 C 204.773438 141.910156 214.972656 145.230469 247.445312 156.125 C 259.609375 160.207031 263.636719 161.515625 269 163.125 C 274.613281 164.820312 279 165.894531 282.136719 166.363281 C 283.457031 166.558594 285.902344 166.632812 286.851562 166.503906 C 289.183594 166.199219 290.828125 164.976562 291.460938 163.089844 C 292.082031 161.203125 291.835938 158.828125 290.636719 155.105469 C 287.632812 145.832031 277.855469 126.273438 265.519531 104.875 C 261.835938 98.472656 254.640625 86.355469 243.640625 68.007812 C 239.332031 60.816406 237.097656 57.425781 235.027344 54.9375 C 231.238281 50.394531 227.242188 48.152344 221.9375 47.625 C 221.234375 47.554688 218.5625 47.542969 217.777344 47.601562 Z M 188.566406 91.886719 C 203.378906 94.367188 214.800781 99.742188 219.941406 106.664062 C 222.203125 109.707031 222.9375 112.878906 221.9375 115.269531 C 221.078125 117.332031 218.933594 118.804688 216.035156 119.324219 C 215.128906 119.480469 212.949219 119.507812 211.953125 119.367188 C 204.625 118.328125 197.039062 112.988281 191.792969 105.171875 C 189.933594 102.410156 188.292969 99.058594 187.253906 95.925781 C 186.871094 94.761719 186.289062 92.570312 186.210938 91.96875 L 186.15625 91.582031 L 186.460938 91.582031 C 186.632812 91.582031 187.574219 91.714844 188.566406 91.886719 Z M 188.566406 91.886719 " fill-opacity="1" fill-rule="nonzero"/></g><g clip-path="url(#0e097ede33)"><g clip-path="url(#2bfcdf9ba3)"><g clip-path="url(#999e240cfd)"><g clip-path="url(#64c6833515)"><path fill="#000000" d="M 147.921875 19.429688 C 144.011719 19.777344 140.214844 22.15625 136.628906 26.503906 C 133.4375 30.378906 130.433594 35.851562 127.949219 42.335938 C 123.476562 54 120.914062 68.507812 121.722656 77.617188 C 123.257812 94.957031 138.464844 107.824219 155.617188 106.304688 C 172.773438 104.785156 185.476562 89.441406 183.941406 72.105469 C 183.136719 62.996094 178.0625 49.164062 171.609375 38.464844 C 168.023438 32.519531 164.105469 27.660156 160.28125 24.410156 C 155.988281 20.761719 151.828125 19.085938 147.921875 19.429688 Z M 155.773438 108.066406 C 137.652344 109.671875 121.589844 96.082031 119.96875 77.773438 C 119.125 68.273438 121.671875 53.777344 126.304688 41.699219 C 129.582031 33.144531 136.734375 18.648438 147.765625 17.667969 C 158.796875 16.691406 168.382812 29.707031 173.117188 37.550781 C 179.800781 48.628906 184.855469 62.453125 185.699219 71.949219 C 187.320312 90.257812 173.894531 106.460938 155.773438 108.066406 " fill-opacity="1" fill-rule="nonzero"/></g></g></g></g></svg>